<svg width="268" height="93" viewBox="0 0 268 93" fill="none" xmlns="http://www.w3.org/2000/svg">
<g clip-path="url(#clip0_49_75)">
<path d="M110.092 75.5766C110.092 80.2217 106.799 83.965 102.712 83.965H91.1631V53.8545H101.838C105.772 53.8545 108.954 57.5067 108.954 61.9422C108.954 64.7383 107.744 67.0152 105.853 68.3541C108.353 69.5564 110.092 72.2249 110.092 75.5766ZM93.8157 56.6961V67.1883H101.838C104.298 67.1883 106.301 64.8658 106.301 61.9422C106.301 59.0186 104.298 56.6961 101.838 56.6961H93.8157ZM107.439 75.5766C107.439 72.5255 105.324 70.03 102.712 70.03H93.8157V81.1324H102.712C105.324 81.1324 107.439 78.6824 107.439 75.5857V75.5766Z" fill="black"/>
<path d="M111.68 55.8307C111.68 54.7104 112.473 53.7632 113.498 53.7632C114.525 53.7632 115.318 54.7104 115.318 55.8307C115.318 56.951 114.525 57.8982 113.498 57.8982C112.473 57.8982 111.68 56.951 111.68 55.8307ZM112.249 62.4521H114.749V83.9557H112.249V62.4521Z" fill="black"/>
<path d="M116.6 73.2078C116.6 66.8415 121.031 61.9414 126.553 61.9414C132.075 61.9414 136.506 66.8415 136.506 73.2078C136.506 79.5742 132.075 84.4742 126.553 84.4742C121.031 84.4742 116.6 79.5742 116.6 73.2078ZM134.014 73.2078C134.014 68.4354 130.76 64.6921 126.561 64.6921C122.362 64.6921 119.108 68.4354 119.108 73.2078C119.108 77.9803 122.362 81.7236 126.561 81.7236C130.76 81.7236 134.014 77.9803 134.014 73.2078Z" fill="black"/>
<path d="M159.322 70.0202H152.582V77.6798H150.163V70.0202H143.423V67.2696H150.163V59.6099H152.582V67.2696H159.322V70.0202Z" fill="black"/>
<path d="M185.864 53.8545V83.965H183.211V69.9025H168.827V83.965H166.174V53.8545H168.827V67.0608H183.211V53.8545H185.864Z" fill="black"/>
<path d="M207.398 73.2898C207.398 73.7179 207.358 74.1915 207.326 74.6195H190.713C191.242 79.0095 194.231 81.7146 198.246 81.7146C201.236 81.7146 203.319 80.1207 204.336 78.0623L206.533 79.5287C204.946 82.4523 202.029 84.4742 198.206 84.4742C192.228 84.4742 188.141 79.7017 188.141 73.2078C188.141 66.714 192.156 61.9414 198.022 61.9414C203.888 61.9414 207.406 67.4061 207.406 73.299L207.398 73.2898ZM190.705 71.869H204.826C204.296 67.1329 201.268 64.6829 198.014 64.6829C194.039 64.6829 191.202 67.6521 190.705 71.869Z" fill="black"/>
<path d="M229.475 62.4519V83.9554H226.976V79.7384C225.388 82.6165 222.695 84.4654 219.33 84.4654C213.992 84.4654 209.561 79.5654 209.561 73.1991C209.561 66.8327 213.992 61.9326 219.33 61.9326C222.695 61.9326 225.388 63.7815 226.976 66.6596V62.4427H229.475V62.4519ZM226.976 73.2081C226.976 68.4357 223.722 64.6924 219.522 64.6924C215.323 64.6924 212.07 68.4357 212.07 73.2081C212.07 77.9806 215.323 81.7239 219.522 81.7239C223.722 81.7239 226.976 77.9806 226.976 73.2081Z" fill="black"/>
<path d="M232.081 53.7632L234.581 52.8979V83.9556H232.081V53.7632Z" fill="black"/>
<path d="M243.597 65.202V78.2353C243.597 81.9331 245.376 81.6325 249.046 81.4595V83.955C243.933 84.8112 241.096 83.3994 241.096 78.2353V65.202H237.121V62.4514H241.096V57.2873L243.597 56.4312V62.4514H249.046V65.202H243.597Z" fill="black"/>
<path d="M267.575 70.758V83.9645H265.075V70.758C265.075 66.9328 263.223 64.6923 259.929 64.6923C256.636 64.6923 253.799 66.9328 253.799 72.689V83.9553H251.299V53.7993L253.799 52.9341V65.8126C255.273 63.1075 257.47 61.9417 260.155 61.9417C264.77 61.9417 267.575 65.3844 267.575 70.758Z" fill="black"/>
<path d="M48.978 66.6335C48.8899 66.6335 48.8017 66.6335 48.7136 66.6335C47.2309 66.6882 45.8766 67.3895 44.8909 68.5917C43.817 69.9032 43.2721 71.6793 43.3442 73.5827C43.4003 75.4681 44.0574 77.1713 45.2034 78.3827C46.2693 79.5029 47.6797 80.0858 49.1784 80.0038C52.3759 79.8398 54.764 76.7888 54.6198 73.0455C54.5477 71.1509 53.8745 69.4478 52.7205 68.2455C51.7027 67.189 50.3885 66.6152 48.978 66.6152V66.6335Z" fill="black"/>
<path d="M17.0185 0C8.0189 0 0.662109 8.36098 0.662109 18.589V74.411C0.662109 84.6299 8.0189 93 17.0185 93H68.2517C77.2433 93 84.6081 84.639 84.6081 74.411V0H17.0185ZM29.8649 83.9012H25.6175V82.2164C23.6781 83.8102 21.2259 84.6663 18.5893 84.3658C13.853 83.8284 9.97429 79.4749 9.46942 74.0922C8.80427 67.0882 13.6126 61.1681 19.6391 61.1681C21.875 61.1681 23.9346 61.9879 25.6175 63.3722V61.8694H29.8649V83.9012ZM37.0213 83.8831H32.7339V58.4449H29.9451V54.0459H37.0213V83.8831ZM49.2266 84.4477C49.1305 84.4477 49.0342 84.4477 48.9381 84.4477C46.3656 84.4477 43.9454 83.3821 42.0861 81.424C40.1548 79.3838 39.0489 76.615 38.9767 73.6094C38.9046 71.0501 39.714 68.4362 41.3088 66.059L49.1865 54.0459H54.2914L48.7217 62.2246C49.0743 62.2065 49.451 62.2065 49.7956 62.2065C54.7802 62.507 58.7953 67.2522 58.9394 72.9992C59.0517 79.1925 54.7802 84.22 49.2106 84.4477H49.2266ZM75.2478 83.8831H60.5342V79.4749L70.0227 66.4507H60.5342V62.0425H75.2237V66.4507H75.2158L65.7032 79.4749H75.2478V83.8831Z" fill="black"/>
<path d="M19.631 65.9858C15.9044 65.9858 12.9714 69.8567 13.7808 74.2558C14.2536 76.8242 16.0807 78.9007 18.3407 79.4381C22.1954 80.358 25.5853 77.0518 25.6174 72.8441V72.7439C25.5933 69.0097 22.9246 65.995 19.6389 65.995L19.631 65.9858Z" fill="black"/>
</g>
<defs>
<clipPath id="clip0_49_75">
<rect width="268" height="93" fill="white"/>
</clipPath>
</defs>
</svg>
