<svg width="453" height="59" viewBox="0 0 453 59" fill="none" xmlns="http://www.w3.org/2000/svg">
<path d="M48.919 52.4032C44.5909 52.4032 42.1779 46.9231 42.1779 37.0078C42.1779 26.939 44.5909 21.6125 48.919 21.6125C53.247 21.6125 55.6601 27.0208 55.6601 37.0078C55.6525 47.0767 53.2394 52.4032 48.919 52.4032ZM48.919 17.4846C40.1019 17.4846 35.2147 26.2731 35.2147 37.0078C35.2147 47.7426 40.1019 56.5311 48.919 56.5311C57.736 56.5311 62.6232 47.7426 62.6232 37.0078C62.6232 26.2731 57.736 17.4846 48.919 17.4846ZM110.186 17.4846C106.027 17.4846 103.729 19.8917 102.434 22.9646H102.097V18.2323H95.4707V55.7833H102.097V31.5278C102.097 25.9761 104.234 22.7392 107.658 22.7392C110.975 22.7392 112.431 25.6688 112.431 30.104V55.7833H119.057V30.0222C119.064 22.2886 116.031 17.4846 110.186 17.4846ZM134.109 17.4846C127.989 17.4846 123.385 20.9366 123.385 28.3013C123.385 34.5392 126.587 37.9195 130.18 39.118L135.795 40.9924C138.774 41.9655 140.123 43.3994 140.123 46.5544C140.123 50.3852 138.1 52.567 134.561 52.567C130.739 52.567 128.778 50.0883 128.157 43.8604L122.205 46.114C122.542 52.5773 127.039 56.5515 133.834 56.5515C141.417 56.5515 145.515 51.8193 145.515 44.3112C145.515 37.2536 141.861 34.3242 138.047 33.0438L132.654 31.2411C129.957 30.3396 128.778 28.6905 128.778 26.2833C128.778 23.2822 130.685 21.4794 133.55 21.4794C136.921 21.4794 138.997 23.9581 139.28 28.6905L144.895 26.4369C144.221 21.1619 140.345 17.4846 134.109 17.4846ZM161.97 52.4032C157.641 52.4032 155.229 46.9231 155.229 37.0078C155.229 26.939 157.641 21.6125 161.97 21.6125C166.298 21.6125 168.711 27.0208 168.711 37.0078C168.711 47.0767 166.29 52.4032 161.97 52.4032ZM161.97 17.4846C153.153 17.4846 148.265 26.2731 148.265 37.0078C148.265 47.7426 153.153 56.5311 161.97 56.5311C170.787 56.5311 175.675 47.7426 175.675 37.0078C175.675 26.2731 170.787 17.4846 161.97 17.4846ZM194.32 17.4846C190.16 17.4846 187.862 19.8917 186.567 22.9646H186.23V18.2323H179.603V55.7833H186.23V31.5278C186.23 25.9761 188.368 22.7392 191.791 22.7392C195.108 22.7392 196.564 25.6688 196.564 30.104V55.7833H203.19V30.0222C203.19 22.2886 200.156 17.4846 194.32 17.4846ZM292.769 52.4032C288.441 52.4032 286.029 46.9231 286.029 37.0078C286.029 26.939 288.441 21.6125 292.769 21.6125C297.098 21.6125 299.511 27.0208 299.511 37.0078C299.511 47.0767 297.09 52.4032 292.769 52.4032ZM292.769 17.4846C283.952 17.4846 279.065 26.2731 279.065 37.0078C279.065 47.7426 283.952 56.5311 292.769 56.5311C301.587 56.5311 306.474 47.7426 306.474 37.0078C306.474 26.2731 301.587 17.4846 292.769 17.4846ZM354.036 17.4846C349.877 17.4846 347.579 19.8917 346.285 22.9646H345.947V18.2323H339.321V55.7833H345.947V31.5278C345.947 25.9761 348.085 22.7392 351.509 22.7392C354.826 22.7392 356.28 25.6688 356.28 30.104V55.7833H362.908V30.0222C362.915 22.2886 359.881 17.4846 354.036 17.4846ZM377.967 17.4846C371.847 17.4846 367.244 20.9366 367.244 28.3013C367.244 34.5392 370.446 37.9195 374.037 39.118L379.653 40.9924C382.632 41.9655 383.981 43.3994 383.981 46.5544C383.981 50.3852 381.959 52.567 378.42 52.567C374.598 52.567 372.636 50.0883 372.015 43.8604L366.064 46.114C366.401 52.5773 370.897 56.5515 377.692 56.5515C385.275 56.5515 389.373 51.8193 389.373 44.3112C389.373 37.2536 385.72 34.3242 381.904 33.0438L376.513 31.2411C373.815 30.3396 372.636 28.6905 372.636 26.2833C372.636 23.2822 374.543 21.4794 377.408 21.4794C380.779 21.4794 382.855 23.9581 383.138 28.6905L388.754 26.4369C388.071 21.1619 384.196 17.4846 377.967 17.4846ZM405.821 52.4032C401.492 52.4032 399.079 46.9231 399.079 37.0078C399.079 26.939 401.492 21.6125 405.821 21.6125C410.149 21.6125 412.561 27.0208 412.561 37.0078C412.561 47.0767 410.14 52.4032 405.821 52.4032ZM405.821 17.4846C397.003 17.4846 392.116 26.2731 392.116 37.0078C392.116 47.7426 397.003 56.5311 405.821 56.5311C414.638 56.5311 419.524 47.7426 419.524 37.0078C419.524 26.2731 414.638 17.4846 405.821 17.4846ZM438.171 17.4846C434.01 17.4846 431.712 19.8917 430.418 22.9646H430.081V18.2323H423.454V55.7833H430.081V31.5278C430.081 25.9761 432.218 22.7392 435.642 22.7392C438.959 22.7392 440.415 25.6688 440.415 30.104V55.7833H447.041V30.0222C447.041 22.2886 444.007 17.4846 438.171 17.4846ZM31.2851 3.21601H24.3218V42.0371C24.3218 48.347 22.5216 52.0958 18.2548 52.0958C14.0416 52.0958 12.1878 48.1114 12.1878 41.2792V34.0682L5.22461 36.3932V39.6199C5.22461 49.4532 8.87858 56.9716 18.2548 56.9716C27.631 56.9716 31.2851 49.4635 31.2851 39.6199V3.21601ZM73.1792 3.21601H66.553V55.7833H73.1792V31.5278C73.1792 25.9761 75.3165 22.7392 78.7406 22.7392C82.0575 22.7392 83.513 25.6688 83.513 30.104V55.7833H90.1392V30.0222C90.1392 22.2886 87.1057 17.4846 81.2685 17.4846C77.1089 17.4846 74.8108 19.8917 73.5163 22.9646H73.1792V3.21601ZM275.136 3.21601H268.172V42.0371C268.172 48.347 266.372 52.0958 262.105 52.0958C257.893 52.0958 256.038 48.1114 256.038 41.2792V34.0682L249.075 36.3932V39.6199C249.075 49.4532 252.729 56.9716 262.105 56.9716C271.481 56.9716 275.136 49.4635 275.136 39.6199V3.21601ZM317.03 3.21601H310.404V55.7833H317.03V31.5278C317.03 25.9761 319.167 22.7392 322.591 22.7392C325.907 22.7392 327.363 25.6688 327.363 30.104V55.7833H333.989V30.0222C333.989 22.2886 330.957 17.4846 325.119 17.4846C320.96 17.4846 318.661 19.8917 317.367 22.9646H317.03V3.21601ZM225.037 51.5017C219.644 51.5017 216.334 45.6428 216.334 39.415C216.334 35.5123 217.63 31.9068 219.76 29.8786L232.453 48.4288C230.094 50.3034 227.451 51.5017 225.037 51.5017ZM237.393 42.2625L226.386 26.0375C228.354 24.9826 230.261 24.6138 231.832 24.6138C236.383 24.6138 239.186 28.1475 239.186 34.232C239.193 36.9362 238.627 39.7119 237.393 42.2625ZM224.869 23.8661L222.456 20.2604C220.319 17.1056 219.705 15.1492 219.705 12.824C219.705 8.4707 221.782 5.99188 225.037 5.99188C228.354 5.99188 230.316 8.54241 230.316 13.203C230.316 17.4846 228.745 21.5409 224.869 23.8661ZM225.206 2.01758C217.454 2.01758 213.638 7.80491 213.638 15.0058C213.638 18.9084 214.872 22.8212 218.135 27.5432L218.189 27.697C212.688 31.2307 210.162 36.9362 210.162 42.7953C210.162 50.5286 214.596 56.992 221.453 56.992C225.381 56.992 229.986 54.8102 234.145 50.9078L237.515 55.7936H246.332V55.4146L239.148 44.8233C242.18 40.0193 243.92 34.7646 243.92 30.1758C243.92 24.4703 241.055 20.6394 236.566 20.6394C234.207 20.6394 231.564 21.5409 229.824 22.4422L229.71 22.1453C233.976 19.062 235.777 16.2145 235.777 12.2299C235.762 6.52453 231.947 2.01758 225.206 2.01758Z" fill="black"/>
</svg>
