<svg width="207" height="207" viewBox="0 0 207 207" fill="none" xmlns="http://www.w3.org/2000/svg">
<g clip-path="url(#clip0_39_1456)">
<mask id="mask0_39_1456" style="mask-type:luminance" maskUnits="userSpaceOnUse" x="73" y="66" width="61" height="76">
<path d="M134 66H73V142H134V66Z" fill="white"/>
</mask>
<g mask="url(#mask0_39_1456)">
<path d="M117.73 142.001H125.259C126.628 142.001 127.871 140.795 127.871 139.468V131.05C131.863 126.83 133.995 121.243 133.995 115.823V104.847C133.995 100.496 129.731 97.2487 126.158 97.2487C125.102 97.2487 124.104 97.4311 123.111 97.8312C122.234 94.6553 119.47 92.1834 116.063 92.1834C114.757 92.1834 113.796 92.3658 112.74 92.7913C111.68 89.1088 108.916 87.1181 105.253 87.1181C104.302 87.1181 103.445 87.2397 102.614 87.5385C102.614 85.1477 102.64 73.6038 102.64 73.6038C102.64 69.3946 99.1451 66.0059 94.8033 66.0059C90.4614 66.0059 86.966 69.3946 86.966 73.6038L86.9399 96.9549C86.3024 95.9824 85.6702 94.9997 84.735 94.1336C83.5907 93.0698 81.8822 92.1783 79.9699 92.1783C77.7076 92.1783 75.7692 93.2319 74.6354 94.5793C73.5016 95.9267 73 97.4412 73 98.9355C73 113.995 82.7025 125.209 93.032 135.375V139.463C93.032 140.79 94.2755 141.996 95.6445 141.996H103.863L104.009 136.93H98.2569V134.398C98.2569 133.734 97.98 133.076 97.494 132.605C87.06 122.413 78.2248 112.201 78.2248 98.9355C78.2248 98.7227 78.4025 98.1149 78.6898 97.7755C78.9772 97.4361 79.2071 97.2487 79.9699 97.2487C80.4193 97.2487 80.6074 97.3044 81.1142 97.7755C81.621 98.2466 82.2689 99.133 82.9899 100.257L87.3474 107.015C87.9483 107.926 89.1866 108.392 90.2576 108.099C91.3287 107.805 92.1438 106.777 92.1647 105.698L92.1908 73.6089C92.1908 72.2058 93.356 71.0762 94.8033 71.0762C96.2505 71.0762 97.4157 72.2058 97.4157 73.6089C97.4157 73.6089 97.3791 88.7745 97.3896 93.0293C97.3896 94.3311 98.445 95.562 100.028 95.562C102.583 95.562 102.75 92.1834 105.253 92.1834C107.291 92.1834 107.865 93.8499 107.865 95.562V99.7864C107.865 101.331 109.083 102.319 110.478 102.319C111.789 102.319 113.095 101.063 113.09 99.7864C113.09 98.3834 114.255 97.2538 115.703 97.2538C117.15 97.2538 118.315 98.3834 118.315 99.7864C118.315 99.7864 118.294 104.816 118.289 104.852H118.315C118.315 106.25 119.485 107.384 120.928 107.384C122.37 107.384 123.54 106.25 123.54 104.852C123.822 103.444 124.956 102.319 126.152 102.319C127.897 102.319 128.765 103.687 128.765 104.852V115.828C128.765 120.564 126.884 125.123 123.43 128.365C122.929 128.836 122.641 129.51 122.641 130.183V136.941H117.134L117.725 142.006L117.73 142.001Z" fill="black"/>
</g>
</g>
<defs>
<clipPath id="clip0_39_1456">
<rect width="61" height="76" fill="white" transform="translate(73 66)"/>
</clipPath>
</defs>
</svg>
