<svg width="414" height="414" viewBox="0 0 414 414" fill="none" xmlns="http://www.w3.org/2000/svg">
<g filter="url(#filter0_f_4_68)">
<circle cx="207" cy="207" r="122" fill="url(#paint0_linear_4_68)" fill-opacity="0.44"/>
</g>
<path d="M310.693 144.764C310.552 142.393 309.547 140.156 307.868 138.476C306.188 136.796 303.951 135.791 301.58 135.651C258.506 133.12 223.793 146.454 208.721 171.342C198.905 187.514 198.565 207.058 207.54 225.761C203.172 231.334 199.811 237.628 197.611 244.358L187.374 234.122C193.188 220.561 192.573 206.54 185.433 194.751C174.129 176.065 148.384 166.07 116.574 167.906C114.201 168.046 111.963 169.053 110.283 170.734C108.604 172.415 107.599 174.654 107.461 177.027C105.617 208.837 115.611 234.582 134.282 245.887C140.614 249.746 147.89 251.78 155.305 251.765C161.628 251.714 167.873 250.374 173.66 247.827L194.562 268.762V287.359C194.562 289.933 195.585 292.401 197.404 294.221C199.224 296.04 201.692 297.062 204.266 297.062C206.839 297.062 209.307 296.04 211.127 294.221C212.946 292.401 213.969 289.933 213.969 287.359V263.514C213.949 254.84 216.631 246.376 221.642 239.297C229.76 243.142 238.616 245.181 247.598 245.272C257.263 245.294 266.746 242.647 275.001 237.623C299.882 222.551 313.232 187.838 310.693 144.764ZM144.333 229.286C133.667 222.817 127.207 207.082 126.681 187.134C146.629 187.66 162.372 194.12 168.833 204.786C171.36 208.895 172.396 213.749 171.768 218.532L162.607 209.338C160.784 207.515 158.312 206.491 155.734 206.491C153.156 206.491 150.684 207.515 148.861 209.338C147.038 211.161 146.014 213.633 146.014 216.211C146.014 218.789 147.038 221.261 148.861 223.084L158.03 232.254C153.26 232.843 148.431 231.796 144.333 229.286ZM264.951 221.055C256.331 226.27 246.353 227.257 235.995 224.095L266.115 193.983C267.938 192.16 268.962 189.688 268.962 187.11C268.962 184.532 267.938 182.06 266.115 180.237C264.292 178.414 261.82 177.39 259.242 177.39C256.664 177.39 254.192 178.414 252.369 180.237L222.249 210.349C219.119 200.031 220.106 190.013 225.289 181.434C235.558 164.453 259.776 154.75 291.044 154.75H291.594C291.707 186.285 282.004 210.688 264.951 221.055Z" fill="url(#paint1_linear_4_68)"/>
<defs>
<filter id="filter0_f_4_68" x="0.5" y="0.5" width="413" height="413" filterUnits="userSpaceOnUse" color-interpolation-filters="sRGB">
<feFlood flood-opacity="0" result="BackgroundImageFix"/>
<feBlend mode="normal" in="SourceGraphic" in2="BackgroundImageFix" result="shape"/>
<feGaussianBlur stdDeviation="42.25" result="effect1_foregroundBlur_4_68"/>
</filter>
<linearGradient id="paint0_linear_4_68" x1="256.763" y1="329" x2="180.513" y2="85" gradientUnits="userSpaceOnUse">
<stop stop-color="#7F9835"/>
<stop offset="1" stop-color="#9FBE4B"/>
</linearGradient>
<linearGradient id="paint1_linear_4_68" x1="209.122" y1="135.346" x2="209.122" y2="297.062" gradientUnits="userSpaceOnUse">
<stop stop-color="#869E3C"/>
<stop offset="1" stop-color="#9FBE47"/>
</linearGradient>
</defs>
</svg>
