<svg width="245" height="62" viewBox="0 0 245 62" fill="none" xmlns="http://www.w3.org/2000/svg">
<g clip-path="url(#clip0_49_111)">
<path d="M154.169 20.9072C151.142 16.7012 147.025 14.1787 141.332 14.1787C132.006 14.1787 124.377 21.749 124.377 31.1201C124.377 40.4911 132.007 48.0614 141.332 48.0614C148.114 48.0614 153.927 44.0969 156.591 38.3288H139.151V24.3902H171.123V2.76398H199.583V16.7026H184.687V24.3929H199.583V38.3315H184.687V45.5402H199.583V59.1173C200.067 59.1173 171.123 59.1173 171.123 59.1173V38.6917C167.732 54.0709 155.257 62.0014 141.33 62.0014C127.404 62.0014 115.898 53.8308 112.628 39.5321V59.3574H98.7017V26.4352C98.7017 26.4352 90.5874 33.5239 90.5874 59.3574H76.1752C76.1752 33.5239 68.0609 26.4352 68.0609 26.4352V59.3574H54.0117V2.16235C70.1194 2.16235 80.7762 20.1855 83.3201 30.7585C85.864 20.1855 96.5208 2.16235 112.628 2.16235V21.1473C115.416 8.53069 128.132 0 141.454 0C154.776 0 167.007 10.2128 169.551 20.9072H154.171H154.169Z" fill="black"/>
<path d="M230.468 59.3559C228.41 43.8566 218.116 32.802 218.116 32.802V59.3559H203.22V3.00391C206.49 3.00391 218.358 9.37226 230.47 26.6738V3.00391H245.003V59.2358H230.47V59.3559H230.468Z" fill="black"/>
<path d="M18.4081 45.1788C18.0451 46.7409 15.5012 55.3916 14.5332 59.3575H0C1.93748 52.2688 5.69144 40.1324 9.68878 31.9619C13.5637 23.9114 18.4081 15.0205 26.5225 9.01236C30.2764 6.24838 37.4227 0.841829 50.7444 2.04374V59.3575H36.6953V45.1788H18.4081ZM36.6953 32.0819V18.745C32.2139 21.8691 27.3695 27.6358 24.464 32.0819H36.6953Z" fill="black"/>
</g>
<defs>
<clipPath id="clip0_49_111">
<rect width="245" height="62" fill="white"/>
</clipPath>
</defs>
</svg>
