<svg width="136" height="136" viewBox="0 0 136 136" fill="none" xmlns="http://www.w3.org/2000/svg">
<g clip-path="url(#clip0_49_116)">
<path d="M64.242 20.2209H72.1157C73.0104 20.2209 73.7262 19.5051 73.7262 18.6104C73.7262 17.7156 73.0104 16.9998 72.1157 16.9998H64.242V20.2209ZM64.242 27.7367H72.2946C73.3683 27.7367 74.0841 27.0209 74.0841 25.9472C74.0841 24.8735 73.3683 24.1577 72.2946 24.1577H64.242V27.7367ZM76.9472 22.0104C78.0209 23.084 78.7367 24.5156 78.7367 26.1261C78.7367 29.3472 76.2315 31.8525 73.0104 31.8525H59.9472V13.063H72.8315C75.8736 13.063 78.3788 15.5683 78.3788 18.6104C78.1999 19.863 77.663 21.1156 76.9472 22.0104ZM79.9893 54.2209H75.1578L73.7262 50.9998H63.1683L61.7367 54.2209H56.9051L66.2104 35.4314H70.5051L79.9893 54.2209ZM68.3578 40.263L65.1367 47.063H71.5788L68.3578 40.263ZM74.7999 58.3367H80.1683L70.6841 70.5051V77.1261H66.2104V70.5051L56.7262 58.3367H62.0946L68.5367 66.9261L74.7999 58.3367ZM99.6736 58.3367V62.4525H87.1472V65.6735H99.3157V69.7893H87.1472V73.3683H99.6736V77.484H82.6736V58.3367H99.6736ZM113.453 69.9683H110.053V77.1261H105.579V58.3367H117.031C120.253 58.3367 122.758 61.0209 122.758 64.2419C122.758 66.9261 120.968 69.0735 118.642 69.7893L124.189 77.1261H118.821L113.453 69.9683ZM116.674 62.2735H110.231V65.8525H116.674C117.747 65.8525 118.463 64.9577 118.463 64.063C118.463 63.1683 117.568 62.2735 116.674 62.2735ZM58.6946 77.1261H53.863L52.4315 73.9051H41.8736L40.442 77.1261H35.6104L45.0946 58.3367H49.3894L58.6946 77.1261ZM47.063 63.1683L43.842 69.9683H50.463L47.063 63.1683ZM18.6104 65.4946H26.4841C27.3788 65.4946 28.0946 64.7788 28.0946 63.884C28.0946 62.9893 27.3788 62.2735 26.4841 62.2735H18.6104V65.4946ZM18.6104 73.0104H26.663C27.7367 73.0104 28.4525 72.2946 28.4525 71.2209C28.4525 70.1472 27.7367 69.4314 26.663 69.4314H18.6104V73.0104ZM31.3157 67.284C32.3894 68.3577 33.1051 69.7893 33.1051 71.3998C33.1051 74.6209 30.5999 77.1261 27.3788 77.1261H14.1367V58.3367H27.0209C30.063 58.3367 32.5683 60.8419 32.5683 63.884C32.5683 65.1367 32.0315 66.3893 31.3157 67.284ZM76.9472 81.063V85.1788H64.4209V88.3998H76.5893V92.5156H64.4209V96.0946H76.9472V100.21H59.9472V81.063H76.9472ZM73.7262 110.231C73.7262 109.158 73.0104 108.442 71.9367 108.442H64.242V112.021H71.9367C73.0104 112.021 73.7262 111.305 73.7262 110.231ZM59.7683 123.295V104.505H72.2946C75.5157 104.505 78.0209 107.189 78.0209 110.41C78.0209 112.916 76.5893 114.884 74.442 115.779L80.1683 123.295H74.7999L69.4315 116.137H64.242V123.295H59.7683Z" fill="black"/>
<path d="M136.178 63.7053C134.031 28.2737 104.505 0 68.3572 0C32.2098 0 2.6835 28.2737 0.536133 63.7053C0.536133 65.1368 0.71508 66.5684 0.894028 68C2.32561 79.8105 6.79929 90.7263 13.5993 99.8526C25.9467 116.674 45.8098 127.589 68.3572 127.589C36.8625 127.589 11.094 103.074 8.94666 72.2947C8.76771 70.8632 8.76771 69.4316 8.76771 68C8.76771 66.5684 8.76771 65.1368 8.94666 63.7053C11.094 32.9263 36.8625 8.41053 68.3572 8.41053C90.9046 8.41053 110.768 19.3263 123.115 36.1474C129.915 45.2737 134.389 56.1895 135.82 68C135.999 69.4316 136.178 70.8632 136.178 72.1158C136.178 70.6842 136.357 69.2526 136.357 67.8211C136.357 66.5684 136.357 65.1368 136.178 63.7053Z" fill="black"/>
<path d="M0.536369 72.2948C2.68374 107.726 32.2101 136 68.3574 136C104.505 136 134.031 107.726 136.178 72.2948C136.178 70.8633 136 69.4317 135.821 68.0001C134.389 56.1896 129.915 45.2738 123.115 36.1475C110.768 19.3264 90.9048 8.41064 68.3574 8.41064C99.8522 8.41064 125.621 32.9264 127.768 63.7054C127.947 65.137 127.947 66.5685 127.947 68.0001C127.947 69.4317 127.947 70.8633 127.768 72.2948C125.621 103.253 99.8522 127.59 68.3574 127.59C45.8101 127.59 25.9469 116.674 13.5995 99.8527C6.79953 90.7264 2.32584 79.8106 0.894264 68.0001C0.715317 66.5685 0.536369 65.137 0.536369 63.8843C0.536369 65.3159 0.357422 66.7475 0.357422 68.1791C0.357422 69.4317 0.357422 70.8633 0.536369 72.2948Z" fill="black"/>
</g>
<defs>
<clipPath id="clip0_49_116">
<rect width="136" height="136" fill="white"/>
</clipPath>
</defs>
</svg>
