<svg width="207" height="207" viewBox="0 0 207 207" fill="none" xmlns="http://www.w3.org/2000/svg">
<g clip-path="url(#clip0_39_1446)">
<mask id="mask0_39_1446" style="mask-type:luminance" maskUnits="userSpaceOnUse" x="60" y="57" width="87" height="93">
<path d="M147 57H60V150H147V57Z" fill="white"/>
</mask>
<g mask="url(#mask0_39_1446)">
<path d="M122.382 100.925C122.183 102.44 121.98 103.955 121.578 105.57C121.077 107.795 120.274 109.31 118.871 111.63C118.469 112.235 118.172 112.84 117.77 113.55C117.27 114.36 116.868 115.165 116.466 115.775C115.267 117.795 114.161 119.616 113.462 121.736H105.94L105.709 125.876H112.664C112.664 126.281 112.565 126.686 112.565 127.191V129.516H112.664H100.74L100.663 133.556H112.565V136.686C112.664 137.091 112.262 137.496 111.762 137.496H95.1332C94.6325 137.496 94.3299 137.091 94.3299 136.686V133.556H96.85V129.516H94.4289V127.191C94.4289 126.686 94.4289 126.281 94.3299 125.876H98.1706V121.736H93.6256C92.9267 119.616 91.9253 117.795 90.6212 115.775C90.2195 115.071 89.7188 114.36 89.3171 113.55C88.9154 112.845 88.5137 112.135 88.2166 111.63C86.8135 109.205 86.0101 107.79 85.5094 105.464C85.1077 103.949 84.9096 102.434 84.9096 100.919C84.9096 90.5137 93.3229 82.0284 103.64 82.0284C109.753 82.0284 115.201 85.0085 118.623 89.6036L121.474 86.9786C117.308 81.5178 110.771 77.9883 103.442 77.9883C90.9183 77.9883 80.7002 88.2939 80.7002 100.925C80.7002 102.745 80.8983 104.56 81.399 106.38C81.9988 109.31 83.0993 111.13 84.607 113.655C84.9096 114.26 85.3058 114.865 85.7075 115.576C86.2082 116.386 86.6099 117.191 87.1106 117.901C89.1135 121.236 90.3186 123.156 90.3186 127.097V136.592C90.3186 139.017 92.0188 140.937 94.3244 141.342C95.3258 146.492 98.3302 149.728 103.442 149.728C108.554 149.728 111.657 146.492 112.56 141.342C114.865 140.937 116.565 138.917 116.565 136.592V127.097C116.565 123.156 117.765 121.136 119.773 117.901C120.175 117.196 120.676 116.386 121.177 115.576C121.578 114.871 121.98 114.26 122.277 113.655C123.779 111.13 124.88 109.31 125.485 106.38C125.986 104.56 126.184 102.745 126.184 100.925H122.376H122.382ZM103.447 145.782C102.347 145.782 99.5408 145.782 98.4403 141.537H108.559C107.459 145.782 104.553 145.782 103.453 145.782H103.447Z" fill="black" stroke="black" stroke-linecap="round" stroke-linejoin="round"/>
<path d="M144.722 98.8994H136.408C135.307 98.8994 134.405 99.8095 134.405 100.92C134.405 102.029 135.307 102.94 136.408 102.94H144.722C145.822 102.94 146.725 102.029 146.725 100.92C146.725 99.8095 145.822 98.8994 144.722 98.8994Z" fill="black" stroke="black" stroke-linecap="round" stroke-linejoin="round"/>
<path d="M126.69 79.5031C127.191 79.5031 127.692 79.3033 128.093 78.8982L134.003 72.938C134.806 72.1277 134.806 70.9179 134.003 70.1077C133.2 69.2974 132 69.2974 131.197 70.1077L125.287 76.0679C124.484 76.8782 124.484 78.088 125.287 78.8982C125.689 79.3033 126.19 79.5031 126.69 79.5031Z" fill="black" stroke="black" stroke-linecap="round" stroke-linejoin="round"/>
<path d="M103.448 69.7029C104.548 69.7029 105.451 68.7927 105.451 67.6828V59.2974C105.451 58.1875 104.548 57.2773 103.448 57.2773C102.347 57.2773 101.445 58.1875 101.445 59.2974V67.6828C101.445 68.7927 102.347 69.7029 103.448 69.7029Z" fill="black" stroke="black" stroke-linecap="round" stroke-linejoin="round"/>
<path d="M78.8076 78.8982C79.2093 79.3033 79.71 79.5031 80.2108 79.5031C80.7115 79.5031 81.2122 79.3033 81.6139 78.8982C82.4173 78.088 82.4173 76.8782 81.6139 76.0679L75.7042 70.1077C74.9008 69.2974 73.7013 69.2974 72.8979 70.1077C72.0946 70.9179 72.0946 72.1277 72.8979 72.938L78.8076 78.8982Z" fill="black" stroke="black" stroke-linecap="round" stroke-linejoin="round"/>
<path d="M70.5921 98.8994H62.2778C61.1773 98.8994 60.2749 99.8095 60.2749 100.92C60.2749 102.029 61.1773 102.94 62.2778 102.94H70.5921C71.6926 102.94 72.595 102.029 72.595 100.92C72.595 99.8095 71.6926 98.8994 70.5921 98.8994Z" fill="black" stroke="black" stroke-linecap="round" stroke-linejoin="round"/>
<path d="M78.8076 122.946L72.8979 128.906C72.0946 129.716 72.0946 130.926 72.8979 131.736C73.2996 132.141 73.8003 132.341 74.3011 132.341C74.8018 132.341 75.3025 132.141 75.7042 131.736L81.6139 125.776C82.4173 124.966 82.4173 123.756 81.6139 122.946C80.8105 122.135 79.5119 122.135 78.8076 122.946Z" fill="black" stroke="black" stroke-linecap="round" stroke-linejoin="round"/>
<path d="M128.093 122.946C127.29 122.135 126.091 122.135 125.287 122.946C124.484 123.756 124.484 124.966 125.287 125.776L131.197 131.736C131.599 132.141 132.099 132.341 132.6 132.341C133.101 132.341 133.601 132.141 134.003 131.736C134.806 130.926 134.806 129.716 134.003 128.906L128.093 122.946Z" fill="black" stroke="black" stroke-linecap="round" stroke-linejoin="round"/>
</g>
</g>
<defs>
<clipPath id="clip0_39_1446">
<rect width="87" height="93" fill="white" transform="translate(60 57)"/>
</clipPath>
</defs>
</svg>
