<svg width="414" height="414" viewBox="0 0 414 414" fill="none" xmlns="http://www.w3.org/2000/svg">
<g filter="url(#filter0_f_4_67)">
<circle cx="207" cy="207" r="122" fill="url(#paint0_linear_4_67)" fill-opacity="0.44"/>
</g>
<path d="M146.125 292.75C146.125 272.769 150.294 256.562 158.631 244.131C166.969 231.699 178.469 219.156 193.131 206.5C178.469 193.85 166.969 181.309 158.631 168.878C150.294 156.446 146.125 140.237 146.125 120.25V118.094C146.125 115.65 146.953 113.603 148.609 111.953C150.265 110.303 152.312 109.475 154.75 109.469C157.188 109.463 159.238 110.291 160.9 111.953C162.561 113.615 163.387 115.662 163.375 118.094V120.25C163.375 121.831 163.412 123.306 163.487 124.675C163.562 126.043 163.668 127.443 163.806 128.875H249.194C249.338 127.438 249.447 126.035 249.522 124.666C249.596 123.298 249.631 121.826 249.625 120.25V118.094C249.625 115.65 250.453 113.603 252.109 111.953C253.765 110.303 255.812 109.475 258.25 109.469C260.688 109.463 262.738 110.291 264.4 111.953C266.061 113.615 266.887 115.662 266.875 118.094V120.25C266.875 140.231 262.706 156.441 254.369 168.878C246.031 181.315 234.531 193.856 219.869 206.5C234.531 219.15 246.031 231.694 254.369 244.131C262.706 256.568 266.875 272.775 266.875 292.75V294.906C266.875 297.35 266.047 299.4 264.391 301.056C262.735 302.712 260.688 303.537 258.25 303.531C255.812 303.526 253.765 302.698 252.109 301.047C250.453 299.397 249.625 297.35 249.625 294.906V292.75C249.625 291.169 249.591 289.694 249.522 288.325C249.453 286.957 249.343 285.557 249.194 284.125H163.806C163.663 285.563 163.556 286.966 163.487 288.334C163.418 289.703 163.381 291.175 163.375 292.75V294.906C163.375 297.35 162.547 299.4 160.891 301.056C159.235 302.712 157.188 303.537 154.75 303.531C152.312 303.526 150.265 302.698 148.609 301.047C146.953 299.397 146.125 297.35 146.125 294.906V292.75ZM175.881 163.375H237.119C238.988 160.644 240.606 157.913 241.975 155.181C243.343 152.45 244.6 149.431 245.744 146.125H167.256C168.406 149.288 169.663 152.272 171.025 155.078C172.388 157.884 174.007 160.65 175.881 163.375ZM206.5 195.288C209.375 192.844 212.178 190.4 214.909 187.956C217.641 185.513 220.228 183.069 222.672 180.625H190.328C192.772 183.069 195.359 185.513 198.091 187.956C200.822 190.4 203.625 192.844 206.5 195.288ZM190.328 232.375H222.672C220.228 229.931 217.641 227.488 214.909 225.044C212.178 222.6 209.375 220.156 206.5 217.713C203.625 220.156 200.822 222.6 198.091 225.044C195.359 227.488 192.772 229.931 190.328 232.375ZM167.256 266.875H245.744C244.594 263.713 243.337 260.731 241.975 257.931C240.612 255.131 238.993 252.362 237.119 249.625H175.881C174.013 252.356 172.397 255.088 171.034 257.819C169.671 260.55 168.412 263.569 167.256 266.875Z" fill="url(#paint1_linear_4_67)"/>
<defs>
<filter id="filter0_f_4_67" x="0.5" y="0.5" width="413" height="413" filterUnits="userSpaceOnUse" color-interpolation-filters="sRGB">
<feFlood flood-opacity="0" result="BackgroundImageFix"/>
<feBlend mode="normal" in="SourceGraphic" in2="BackgroundImageFix" result="shape"/>
<feGaussianBlur stdDeviation="42.25" result="effect1_foregroundBlur_4_67"/>
</filter>
<linearGradient id="paint0_linear_4_67" x1="256.763" y1="329" x2="180.513" y2="85" gradientUnits="userSpaceOnUse">
<stop stop-color="#45698B"/>
<stop offset="1" stop-color="#569799"/>
</linearGradient>
<linearGradient id="paint1_linear_4_67" x1="206.5" y1="109.469" x2="206.5" y2="303.531" gradientUnits="userSpaceOnUse">
<stop offset="0.255" stop-color="#41658A"/>
<stop offset="0.61" stop-color="#549599"/>
</linearGradient>
</defs>
</svg>
