<svg width="635" height="719" viewBox="0 0 635 719" fill="none" xmlns="http://www.w3.org/2000/svg">
<circle cx="42" cy="42" r="42" transform="matrix(-1 0 0 1 635 95)" fill="url(#paint0_linear_175_10)"/>
<circle cx="28.5" cy="28.5" r="28.5" transform="matrix(-1 0 0 1 86 662)" fill="url(#paint1_linear_175_10)"/>
<circle cx="30" cy="30" r="30" transform="matrix(-1 0 0 1 547 482)" fill="url(#paint2_linear_175_10)"/>
<circle cx="30" cy="30" r="30" transform="matrix(-1 0 0 1 60 226)" fill="url(#paint3_linear_175_10)"/>
<circle cx="26.5" cy="26.5" r="26.5" transform="matrix(-1 0 0 1 226 0)" fill="url(#paint4_linear_175_10)"/>
<defs>
<linearGradient id="paint0_linear_175_10" x1="42" y1="0" x2="42" y2="84" gradientUnits="userSpaceOnUse">
<stop stop-color="#C8AAA8"/>
<stop offset="1" stop-color="#E0344A"/>
</linearGradient>
<linearGradient id="paint1_linear_175_10" x1="28.5" y1="0" x2="28.5" y2="57" gradientUnits="userSpaceOnUse">
<stop stop-color="#B38CA9"/>
<stop offset="1" stop-color="#A8A5CB"/>
</linearGradient>
<linearGradient id="paint2_linear_175_10" x1="30" y1="0" x2="30" y2="60" gradientUnits="userSpaceOnUse">
<stop stop-color="#B0A3C6"/>
<stop offset="1" stop-color="#9E99C0"/>
</linearGradient>
<linearGradient id="paint3_linear_175_10" x1="30" y1="0" x2="30" y2="60" gradientUnits="userSpaceOnUse">
<stop stop-color="#93A3CE"/>
<stop offset="1" stop-color="#DC9CA9"/>
</linearGradient>
<linearGradient id="paint4_linear_175_10" x1="26.5" y1="0" x2="26.5" y2="53" gradientUnits="userSpaceOnUse">
<stop stop-color="#D27E76"/>
<stop offset="1" stop-color="#ADB1D1"/>
</linearGradient>
</defs>
</svg>
