<svg width="207" height="207" viewBox="0 0 207 207" fill="none" xmlns="http://www.w3.org/2000/svg">
<path d="M104.299 136.333C106.046 130.916 108.574 125.879 111.866 121.316C114.666 123.408 118.158 123.97 120.995 123.97V124.008C122.541 124.008 123.869 123.845 124.796 123.699C133.892 122.231 140.018 114.158 143.815 106.693L139.804 106.457C136.386 112.73 131.279 118.978 124.213 120.117C122.575 120.389 117.483 120.934 114.118 118.499C116.573 115.536 119.337 112.827 122.393 110.446C123.193 109.828 123.32 108.682 122.702 107.901C122.084 107.101 120.938 106.974 120.157 107.592C117.083 109.973 114.3 112.683 111.791 115.628C110.246 112.155 111.136 107.575 112.1 105.084L112.081 105.048C114.736 98.1397 124.848 93.9567 137.561 93.9567C139.89 93.9567 142.308 94.1025 144.781 94.3924C144.529 95.2307 144.187 96.2982 143.751 97.5218L147.321 98.4053C148.311 95.5657 148.802 93.5749 148.873 93.2833C149 92.7921 148.891 92.2645 148.618 91.8462C148.326 91.4279 147.89 91.1363 147.382 91.0651C128.559 88.2655 112.663 93.4829 108.714 103.737C107.077 107.991 106.386 114.228 109.352 118.7C106.66 122.354 104.386 126.282 102.622 130.463C101.476 124.954 99.6213 119.645 97.0742 114.629C96.1644 112.829 95.2007 111.138 94.1815 109.538C99.1473 103.883 99.4929 95.0658 97.1454 88.9754C94.9646 83.3432 90.0474 78.9432 83.3331 76.1037C80.8798 75.0658 78.185 74.2361 75.2976 73.6304L74.1325 77.152C76.98 77.7248 79.6227 78.5267 81.9979 79.5368C87.759 81.9859 91.9591 85.6603 93.7422 90.2858C95.2511 94.1772 95.8709 101.34 92.0511 106.395C85.6494 97.4315 77.9923 91.5945 72.0993 88.0867C71.2259 87.5782 70.1164 87.8507 69.6077 88.7237C69.099 89.5777 69.3716 90.7058 70.2449 91.2144C75.9192 94.5955 83.321 100.25 89.4328 108.977C83.0849 113.467 73.8287 110.65 73.3911 110.522V110.484C62.6122 107.101 55.0836 93.6287 54.3925 76.6834C55.9917 76.4734 57.5717 76.3224 59.1292 76.2269L58.8392 72.582C56.6827 72.7192 54.4811 72.9569 52.2465 73.3006C51.3558 73.4464 50.7012 74.2101 50.7012 75.1196C50.9929 94.3907 59.6865 109.991 72.3077 113.934C72.9813 114.153 76.3081 115.116 80.4196 115.116C83.894 115.116 87.9309 114.389 91.4226 111.952C92.2595 113.316 93.0599 114.734 93.8239 116.243C96.9891 122.515 99.0258 129.26 99.8801 136.314L104.301 136.331L104.299 136.333Z" fill="black" stroke="black" stroke-width="2" stroke-linecap="round" stroke-linejoin="round"/>
</svg>
