<svg width="520" height="193" viewBox="0 0 520 193" fill="none" xmlns="http://www.w3.org/2000/svg">
<path d="M208.376 63.896H223.096V71H199.416V26.328H208.376V63.896ZM261.751 52.504C261.751 53.784 261.666 54.936 261.495 55.96H235.575C235.788 58.52 236.684 60.5253 238.263 61.976C239.842 63.4267 241.783 64.152 244.087 64.152C247.415 64.152 249.783 62.7227 251.191 59.864H260.855C259.831 63.2773 257.868 66.0933 254.967 68.312C252.066 70.488 248.503 71.576 244.279 71.576C240.866 71.576 237.794 70.8293 235.063 69.336C232.375 67.8 230.263 65.6453 228.727 62.872C227.234 60.0987 226.487 56.8987 226.487 53.272C226.487 49.6027 227.234 46.3813 228.727 43.608C230.22 40.8347 232.311 38.7013 234.999 37.208C237.687 35.7147 240.78 34.968 244.279 34.968C247.65 34.968 250.658 35.6933 253.303 37.144C255.991 38.5947 258.06 40.664 259.511 43.352C261.004 45.9973 261.751 49.048 261.751 52.504ZM252.471 49.944C252.428 47.64 251.596 45.8053 249.975 44.44C248.354 43.032 246.37 42.328 244.023 42.328C241.804 42.328 239.927 43.0107 238.391 44.376C236.898 45.6987 235.98 47.5547 235.639 49.944H252.471ZM265.987 53.144C265.987 49.56 266.691 46.3813 268.099 43.608C269.55 40.8347 271.491 38.7013 273.923 37.208C276.398 35.7147 279.15 34.968 282.179 34.968C284.824 34.968 287.128 35.5013 289.091 36.568C291.096 37.6347 292.696 38.9787 293.891 40.6V35.544H302.915V71H293.891V65.816C292.739 67.48 291.139 68.8667 289.091 69.976C287.086 71.0427 284.76 71.576 282.115 71.576C279.128 71.576 276.398 70.808 273.923 69.272C271.491 67.736 269.55 65.5813 268.099 62.808C266.691 59.992 265.987 56.7707 265.987 53.144ZM293.891 53.272C293.891 51.096 293.464 49.24 292.611 47.704C291.758 46.1253 290.606 44.9307 289.155 44.12C287.704 43.2667 286.147 42.84 284.483 42.84C282.819 42.84 281.283 43.2453 279.875 44.056C278.467 44.8667 277.315 46.0613 276.419 47.64C275.566 49.176 275.139 51.0107 275.139 53.144C275.139 55.2773 275.566 57.1547 276.419 58.776C277.315 60.3547 278.467 61.5707 279.875 62.424C281.326 63.2773 282.862 63.704 284.483 63.704C286.147 63.704 287.704 63.2987 289.155 62.488C290.606 61.6347 291.758 60.44 292.611 58.904C293.464 57.3253 293.891 55.448 293.891 53.272ZM320.626 41.048C321.778 39.1707 323.271 37.6987 325.106 36.632C326.983 35.5653 329.117 35.032 331.506 35.032V44.44H329.138C326.322 44.44 324.189 45.1013 322.738 46.424C321.33 47.7467 320.626 50.0507 320.626 53.336V71H311.666V35.544H320.626V41.048ZM357.189 35.032C361.413 35.032 364.826 36.376 367.429 39.064C370.032 41.7093 371.333 45.4213 371.333 50.2V71H362.373V51.416C362.373 48.6 361.669 46.4453 360.261 44.952C358.853 43.416 356.933 42.648 354.501 42.648C352.026 42.648 350.064 43.416 348.613 44.952C347.205 46.4453 346.501 48.6 346.501 51.416V71H337.541V35.544H346.501V39.96C347.696 38.424 349.21 37.2293 351.045 36.376C352.922 35.48 354.97 35.032 357.189 35.032ZM384.398 31.32C382.819 31.32 381.496 30.8293 380.43 29.848C379.406 28.824 378.894 27.5653 378.894 26.072C378.894 24.5787 379.406 23.3413 380.43 22.36C381.496 21.336 382.819 20.824 384.398 20.824C385.976 20.824 387.278 21.336 388.302 22.36C389.368 23.3413 389.902 24.5787 389.902 26.072C389.902 27.5653 389.368 28.824 388.302 29.848C387.278 30.8293 385.976 31.32 384.398 31.32ZM388.814 35.544V71H379.854V35.544H388.814ZM417.314 35.032C421.538 35.032 424.951 36.376 427.554 39.064C430.157 41.7093 431.458 45.4213 431.458 50.2V71H422.498V51.416C422.498 48.6 421.794 46.4453 420.386 44.952C418.978 43.416 417.058 42.648 414.626 42.648C412.151 42.648 410.189 43.416 408.738 44.952C407.33 46.4453 406.626 48.6 406.626 51.416V71H397.666V35.544H406.626V39.96C407.821 38.424 409.335 37.2293 411.17 36.376C413.047 35.48 415.095 35.032 417.314 35.032ZM453.867 34.968C456.512 34.968 458.837 35.5013 460.843 36.568C462.848 37.592 464.427 38.936 465.579 40.6V35.544H474.603V71.256C474.603 74.5413 473.941 77.464 472.619 80.024C471.296 82.6267 469.312 84.6747 466.667 86.168C464.021 87.704 460.821 88.472 457.067 88.472C452.032 88.472 447.893 87.2987 444.651 84.952C441.451 82.6053 439.637 79.4053 439.211 75.352H448.107C448.576 76.9733 449.579 78.2533 451.115 79.192C452.693 80.1733 454.592 80.664 456.811 80.664C459.413 80.664 461.525 79.8747 463.147 78.296C464.768 76.76 465.579 74.4133 465.579 71.256V65.752C464.427 67.416 462.827 68.8027 460.779 69.912C458.773 71.0213 456.469 71.576 453.867 71.576C450.88 71.576 448.149 70.808 445.675 69.272C443.2 67.736 441.237 65.5813 439.786 62.808C438.378 59.992 437.674 56.7707 437.674 53.144C437.674 49.56 438.378 46.3813 439.786 43.608C441.237 40.8347 443.179 38.7013 445.611 37.208C448.085 35.7147 450.837 34.968 453.867 34.968ZM465.579 53.272C465.579 51.096 465.152 49.24 464.299 47.704C463.445 46.1253 462.293 44.9307 460.843 44.12C459.392 43.2667 457.835 42.84 456.171 42.84C454.507 42.84 452.971 43.2453 451.562 44.056C450.155 44.8667 449.003 46.0613 448.107 47.64C447.253 49.176 446.827 51.0107 446.827 53.144C446.827 55.2773 447.253 57.1547 448.107 58.776C449.003 60.3547 450.155 61.5707 451.562 62.424C453.013 63.2773 454.549 63.704 456.171 63.704C457.835 63.704 459.392 63.2987 460.843 62.488C462.293 61.6347 463.445 60.44 464.299 58.904C465.152 57.3253 465.579 55.448 465.579 53.272ZM227 122.328V129.56H208.376V141.016H222.648V148.12H208.376V167H199.416V122.328H227ZM242.314 137.048C243.466 135.171 244.959 133.699 246.794 132.632C248.671 131.565 250.804 131.032 253.194 131.032V140.44H250.826C248.01 140.44 245.876 141.101 244.426 142.424C243.018 143.747 242.314 146.051 242.314 149.336V167H233.354V131.544H242.314V137.048ZM274.973 167.576C271.559 167.576 268.487 166.829 265.757 165.336C263.026 163.8 260.871 161.645 259.293 158.872C257.757 156.099 256.989 152.899 256.989 149.272C256.989 145.645 257.778 142.445 259.357 139.672C260.978 136.899 263.175 134.765 265.949 133.272C268.722 131.736 271.815 130.968 275.229 130.968C278.642 130.968 281.735 131.736 284.509 133.272C287.282 134.765 289.458 136.899 291.037 139.672C292.658 142.445 293.469 145.645 293.469 149.272C293.469 152.899 292.637 156.099 290.972 158.872C289.351 161.645 287.133 163.8 284.317 165.336C281.543 166.829 278.429 167.576 274.973 167.576ZM274.973 159.768C276.594 159.768 278.109 159.384 279.517 158.616C280.967 157.805 282.119 156.611 282.973 155.032C283.826 153.453 284.253 151.533 284.253 149.272C284.253 145.901 283.357 143.32 281.565 141.528C279.815 139.693 277.661 138.776 275.101 138.776C272.541 138.776 270.386 139.693 268.637 141.528C266.93 143.32 266.077 145.901 266.077 149.272C266.077 152.643 266.909 155.245 268.573 157.08C270.279 158.872 272.413 159.768 274.973 159.768ZM344.073 131.032C348.425 131.032 351.924 132.376 354.569 135.064C357.257 137.709 358.601 141.421 358.601 146.2V167H349.641V147.416C349.641 144.643 348.937 142.531 347.529 141.08C346.121 139.587 344.201 138.84 341.769 138.84C339.337 138.84 337.396 139.587 335.945 141.08C334.537 142.531 333.833 144.643 333.833 147.416V167H324.873V147.416C324.873 144.643 324.169 142.531 322.761 141.08C321.353 139.587 319.433 138.84 317.001 138.84C314.526 138.84 312.564 139.587 311.113 141.08C309.705 142.531 309.001 144.643 309.001 147.416V167H300.041V131.544H309.001V135.832C310.153 134.339 311.625 133.165 313.417 132.312C315.252 131.459 317.257 131.032 319.433 131.032C322.206 131.032 324.681 131.629 326.857 132.824C329.033 133.976 330.718 135.64 331.913 137.816C333.065 135.768 334.729 134.125 336.905 132.888C339.124 131.651 341.513 131.032 344.073 131.032ZM391.314 159.896H406.034V167H382.354V122.328H391.314V159.896ZM416.273 127.32C414.694 127.32 413.371 126.829 412.305 125.848C411.281 124.824 410.769 123.565 410.769 122.072C410.769 120.579 411.281 119.341 412.305 118.36C413.371 117.336 414.694 116.824 416.273 116.824C417.851 116.824 419.153 117.336 420.177 118.36C421.243 119.341 421.777 120.579 421.777 122.072C421.777 123.565 421.243 124.824 420.177 125.848C419.153 126.829 417.851 127.32 416.273 127.32ZM420.689 131.544V167H411.729V131.544H420.689ZM445.797 138.904H439.589V167H430.501V138.904H426.469V131.544H430.501V129.752C430.501 125.4 431.738 122.2 434.213 120.152C436.688 118.104 440.421 117.144 445.413 117.272V124.824C443.237 124.781 441.722 125.144 440.869 125.912C440.016 126.68 439.589 128.067 439.589 130.072V131.544H445.797V138.904ZM484.564 148.504C484.564 149.784 484.478 150.936 484.308 151.96H458.388C458.601 154.52 459.497 156.525 461.076 157.976C462.654 159.427 464.596 160.152 466.9 160.152C470.228 160.152 472.596 158.723 474.004 155.864H483.668C482.644 159.277 480.681 162.093 477.78 164.312C474.878 166.488 471.316 167.576 467.092 167.576C463.678 167.576 460.606 166.829 457.876 165.336C455.188 163.8 453.076 161.645 451.54 158.872C450.046 156.099 449.299 152.899 449.299 149.272C449.299 145.603 450.046 142.381 451.54 139.608C453.033 136.835 455.124 134.701 457.812 133.208C460.5 131.715 463.593 130.968 467.092 130.968C470.462 130.968 473.47 131.693 476.116 133.144C478.804 134.595 480.873 136.664 482.324 139.352C483.817 141.997 484.564 145.048 484.564 148.504ZM475.284 145.944C475.241 143.64 474.409 141.805 472.788 140.44C471.166 139.032 469.182 138.328 466.836 138.328C464.617 138.328 462.74 139.011 461.204 140.376C459.71 141.699 458.793 143.555 458.452 145.944H475.284ZM495.072 167.448C493.45 167.448 492.106 166.957 491.04 165.976C490.016 164.952 489.504 163.693 489.504 162.2C489.504 160.707 490.016 159.469 491.04 158.488C492.106 157.464 493.45 156.952 495.072 156.952C496.65 156.952 497.952 157.464 498.976 158.488C500 159.469 500.512 160.707 500.512 162.2C500.512 163.693 500 164.952 498.976 165.976C497.952 166.957 496.65 167.448 495.072 167.448Z" fill="#333333"/>
<path d="M54.525 75L67.5 52.5H108.15L116.85 37.5L116.25 33.75C116.25 30.7663 117.435 27.9048 119.545 25.795C121.655 23.6853 124.516 22.5 127.5 22.5C130.484 22.5 133.345 23.6853 135.455 25.795C137.565 27.9048 138.75 30.7663 138.75 33.75C138.75 39.075 135 43.575 129.975 44.7L122.775 57.225L132.975 75L139.425 63.75L138.75 60C138.75 57.0163 139.935 54.1548 142.045 52.045C144.155 49.9353 147.016 48.75 150 48.75C152.984 48.75 155.845 49.9353 157.955 52.045C160.065 54.1548 161.25 57.0163 161.25 60C161.25 65.325 157.5 69.75 152.625 70.95L141.675 90L154.65 112.5C160.425 113.025 165 117.825 165 123.75C165 126.734 163.815 129.595 161.705 131.705C159.595 133.815 156.734 135 153.75 135C150.766 135 147.905 133.815 145.795 131.705C143.685 129.595 142.5 126.734 142.5 123.75V121.8L132.975 105L122.775 122.775L129.975 135.3C132.462 135.861 134.685 137.25 136.279 139.239C137.873 141.229 138.744 143.701 138.75 146.25C138.75 149.234 137.565 152.095 135.455 154.205C133.345 156.315 130.484 157.5 127.5 157.5C124.516 157.5 121.655 156.315 119.545 154.205C117.435 152.095 116.25 149.234 116.25 146.25L116.85 142.5L108.15 127.5H79.35L70.65 142.5L71.25 146.25C71.25 149.234 70.0647 152.095 67.955 154.205C65.8452 156.315 62.9837 157.5 60 157.5C57.0163 157.5 54.1548 156.315 52.045 154.205C49.9353 152.095 48.75 149.234 48.75 146.25C48.75 140.925 52.5 136.425 57.525 135.3L64.725 122.775L32.85 67.5C27.075 66.975 22.5 62.175 22.5 56.25C22.5 53.2663 23.6853 50.4048 25.795 48.295C27.9048 46.1853 30.7663 45 33.75 45C36.7337 45 39.5952 46.1853 41.705 48.295C43.8147 50.4048 45 53.2663 45 56.25V58.2L54.525 75ZM76.125 67.5L63.15 90L76.125 112.5H111.375L124.35 90L111.375 67.5H76.125Z" fill="#333333"/>
</svg>
