<svg width="140" height="112" viewBox="0 0 140 112" fill="none" xmlns="http://www.w3.org/2000/svg">
<g clip-path="url(#clip0_32_238)">
<path d="M73.5 0C67.7031 0 63 4.70312 63 10.5V30.6469L78.6187 56.5469C79.1656 56.1969 79.8 56 80.5 56H87.5C89.425 56 91 57.575 91 59.5V66.5C91 68.425 89.425 70 87.5 70H86.7344L102.878 96.775C105.591 101.281 105.7 106.903 103.141 111.497C103.053 111.672 102.944 111.847 102.834 112H129.5C135.297 112 140 107.297 140 101.5V52.5C140 46.7031 135.297 42 129.5 42H124.25V26.25C124.25 23.3406 121.909 21 119 21C116.091 21 113.75 23.3406 113.75 26.25V42H105V10.5C105 4.70312 100.297 0 94.5 0H73.5ZM80.5 14H87.5C89.425 14 91 15.575 91 17.5V24.5C91 26.425 89.425 28 87.5 28H80.5C78.575 28 77 26.425 77 24.5V17.5C77 15.575 78.575 14 80.5 14ZM77 38.5C77 36.575 78.575 35 80.5 35H87.5C89.425 35 91 36.575 91 38.5V45.5C91 47.425 89.425 49 87.5 49H80.5C78.575 49 77 47.425 77 45.5V38.5ZM112 59.5C112 57.575 113.575 56 115.5 56H122.5C124.425 56 126 57.575 126 59.5V66.5C126 68.425 124.425 70 122.5 70H115.5C113.575 70 112 68.425 112 66.5V59.5ZM115.5 77H122.5C124.425 77 126 78.575 126 80.5V87.5C126 89.425 124.425 91 122.5 91H115.5C113.575 91 112 89.425 112 87.5V80.5C112 78.575 113.575 77 115.5 77ZM49 41.3219L62.0812 63H48.7812L38.2812 77L32.9 67.9875L49 41.3219ZM55.4312 31.6531C54.0531 29.3781 51.625 28 49 28C46.375 28 43.9469 29.3781 42.5687 31.6531L1.11561 100.384C-0.306264 102.747 -0.350014 105.7 0.962486 108.106C2.27499 110.513 4.81249 112 7.54686 112H90.475C93.2094 112 95.725 110.513 97.0594 108.106C98.3937 105.7 98.3281 102.747 96.9062 100.384L55.4312 31.6531Z" fill="#333333"/>
</g>
<defs>
<clipPath id="clip0_32_238">
<rect width="140" height="112" fill="white"/>
</clipPath>
</defs>
</svg>
