<svg width="414" height="414" viewBox="0 0 414 414" fill="none" xmlns="http://www.w3.org/2000/svg">
<g filter="url(#filter0_f_4_69)">
<circle cx="207" cy="207" r="122" fill="url(#paint0_linear_4_69)" fill-opacity="0.44"/>
</g>
<path d="M224.75 198.875H216.125V190.25C216.125 187.962 215.216 185.769 213.599 184.151C211.981 182.534 209.787 181.625 207.5 181.625C205.213 181.625 203.019 182.534 201.401 184.151C199.784 185.769 198.875 187.962 198.875 190.25V198.875H190.25C187.963 198.875 185.769 199.784 184.151 201.401C182.534 203.019 181.625 205.212 181.625 207.5C181.625 209.787 182.534 211.981 184.151 213.599C185.769 215.216 187.963 216.125 190.25 216.125H198.875V224.75C198.875 227.037 199.784 229.231 201.401 230.849C203.019 232.466 205.213 233.375 207.5 233.375C209.787 233.375 211.981 232.466 213.599 230.849C215.216 229.231 216.125 227.037 216.125 224.75V216.125H224.75C227.037 216.125 229.231 215.216 230.849 213.599C232.466 211.981 233.375 209.787 233.375 207.5C233.375 205.212 232.466 203.019 230.849 201.401C229.231 199.784 227.037 198.875 224.75 198.875ZM277.88 147.125C268.683 138.023 256.536 132.508 243.63 131.575C230.725 130.642 217.911 134.352 207.5 142.036C196.526 133.874 182.867 130.173 169.273 131.678C155.68 133.183 143.161 139.783 134.239 150.149C125.317 160.514 120.653 173.876 121.188 187.542C121.722 201.208 127.415 214.164 137.12 223.801L188.87 275.982C193.722 280.828 200.298 283.55 207.155 283.55C214.012 283.55 220.588 280.828 225.44 275.982L277.19 223.801C282.287 218.822 286.349 212.884 289.144 206.329C291.938 199.774 293.41 192.732 293.474 185.607C293.538 178.481 292.194 171.413 289.517 164.81C286.841 158.206 282.886 152.196 277.88 147.125ZM265.719 211.467L213.969 263.217C213.167 264.026 212.213 264.668 211.162 265.105C210.111 265.543 208.984 265.769 207.845 265.769C206.706 265.769 205.579 265.543 204.528 265.105C203.477 264.668 202.523 264.026 201.721 263.217L149.971 211.467C143.207 204.553 139.42 195.265 139.42 185.592C139.42 175.92 143.207 166.632 149.971 159.717C156.864 152.912 166.16 149.096 175.846 149.096C185.532 149.096 194.829 152.912 201.721 159.717C202.523 160.526 203.477 161.168 204.528 161.605C205.579 162.043 206.706 162.269 207.845 162.269C208.984 162.269 210.111 162.043 211.162 161.605C212.213 161.168 213.167 160.526 213.969 159.717C220.861 152.912 230.158 149.096 239.844 149.096C249.53 149.096 258.826 152.912 265.719 159.717C272.535 166.639 276.355 175.964 276.355 185.679C276.355 195.393 272.535 204.718 265.719 211.64V211.467Z" fill="url(#paint1_linear_4_69)"/>
<defs>
<filter id="filter0_f_4_69" x="0.5" y="0.5" width="413" height="413" filterUnits="userSpaceOnUse" color-interpolation-filters="sRGB">
<feFlood flood-opacity="0" result="BackgroundImageFix"/>
<feBlend mode="normal" in="SourceGraphic" in2="BackgroundImageFix" result="shape"/>
<feGaussianBlur stdDeviation="42.25" result="effect1_foregroundBlur_4_69"/>
</filter>
<linearGradient id="paint0_linear_4_69" x1="292" y1="311" x2="180.513" y2="85" gradientUnits="userSpaceOnUse">
<stop stop-color="#DE1010" stop-opacity="0.5"/>
<stop offset="1" stop-color="#D6ADAD"/>
</linearGradient>
<linearGradient id="paint1_linear_4_69" x1="207.311" y1="131.349" x2="207.311" y2="283.55" gradientUnits="userSpaceOnUse">
<stop stop-color="#DE1010"/>
<stop offset="1" stop-color="#CFBCBC"/>
</linearGradient>
</defs>
</svg>
