<svg width="112" height="112" viewBox="0 0 112 112" fill="none" xmlns="http://www.w3.org/2000/svg">
<path d="M56 67.6666C62.4433 67.6666 67.6667 62.4433 67.6667 56C67.6667 49.5567 62.4433 44.3333 56 44.3333C49.5567 44.3333 44.3333 49.5567 44.3333 56C44.3333 62.4433 49.5567 67.6666 56 67.6666Z" stroke="white"/>
<path d="M46.6667 65.3333L30.3333 81.6667M49 49L28 28" stroke="white" stroke-linejoin="round"/>
<path d="M79.3333 86.3333C83.1993 86.3333 86.3333 83.1993 86.3333 79.3333C86.3333 75.4673 83.1993 72.3333 79.3333 72.3333C75.4674 72.3333 72.3333 75.4673 72.3333 79.3333C72.3333 83.1993 75.4674 86.3333 79.3333 86.3333Z" stroke="white"/>
<path d="M93.3333 63C97.1993 63 100.333 59.866 100.333 56C100.333 52.134 97.1993 49 93.3333 49C89.4674 49 86.3333 52.134 86.3333 56C86.3333 59.866 89.4674 63 93.3333 63Z" stroke="white"/>
<path d="M86.3333 56H67.6667M65.3333 65.3333L74.6667 74.6667" stroke="white" stroke-linejoin="round"/>
<path d="M88.6667 35C95.11 35 100.333 29.7766 100.333 23.3333C100.333 16.89 95.11 11.6667 88.6667 11.6667C82.2233 11.6667 77 16.89 77 23.3333C77 29.7766 82.2233 35 88.6667 35Z" stroke="white"/>
<path d="M79.3333 32.6667L65.3333 46.6667" stroke="white" stroke-linejoin="round"/>
<path d="M23.3333 30.3333C27.1993 30.3333 30.3333 27.1993 30.3333 23.3333C30.3333 19.4673 27.1993 16.3333 23.3333 16.3333C19.4674 16.3333 16.3333 19.4673 16.3333 23.3333C16.3333 27.1993 19.4674 30.3333 23.3333 30.3333Z" stroke="white"/>
<path d="M23.3333 100.333C29.7767 100.333 35 95.11 35 88.6667C35 82.2233 29.7767 77 23.3333 77C16.89 77 11.6667 82.2233 11.6667 88.6667C11.6667 95.11 16.89 100.333 23.3333 100.333Z" stroke="white"/>
</svg>
