<svg width="185" height="185" viewBox="0 0 185 185" fill="none" xmlns="http://www.w3.org/2000/svg">
<path d="M92.5 131.042C109.529 131.042 123.333 117.237 123.333 100.208C123.333 83.1796 109.529 69.375 92.5 69.375C75.4712 69.375 61.6667 83.1796 61.6667 100.208C61.6667 117.237 75.4712 131.042 92.5 131.042Z" stroke="white" stroke-width="1.5" stroke-linecap="round" stroke-linejoin="round"/>
<path d="M92.5 46.25C101.014 46.25 107.917 39.3477 107.917 30.8333C107.917 22.3189 101.014 15.4167 92.5 15.4167C83.9856 15.4167 77.0833 22.3189 77.0833 30.8333C77.0833 39.3477 83.9856 46.25 92.5 46.25Z" stroke="white" stroke-width="1.5" stroke-linecap="round" stroke-linejoin="round"/>
<path d="M30.8333 169.583C39.3477 169.583 46.25 162.681 46.25 154.167C46.25 145.652 39.3477 138.75 30.8333 138.75C22.3189 138.75 15.4167 145.652 15.4167 154.167C15.4167 162.681 22.3189 169.583 30.8333 169.583Z" stroke="white" stroke-width="1.5" stroke-linecap="round" stroke-linejoin="round"/>
<path d="M154.167 169.583C162.681 169.583 169.583 162.681 169.583 154.167C169.583 145.652 162.681 138.75 154.167 138.75C145.652 138.75 138.75 145.652 138.75 154.167C138.75 162.681 145.652 169.583 154.167 169.583Z" stroke="white" stroke-width="1.5" stroke-linecap="round" stroke-linejoin="round"/>
<path d="M92.5 69.375V46.25M142.604 142.604L115.625 123.333M42.3958 142.604L69.375 123.333" stroke="white" stroke-width="1.5" stroke-linecap="round" stroke-linejoin="round"/>
</svg>
