<svg width="127" height="107" viewBox="0 0 127 107" fill="none" xmlns="http://www.w3.org/2000/svg">
<path d="M57.7291 21.375L71.3125 41.75L57.7291 62.125H37.3541L23.7708 41.75L37.3541 21.375H57.7291Z" stroke="white" stroke-linecap="round" stroke-linejoin="round"/>
<path d="M91.6875 41.75L105.271 21.375L91.6875 1H71.3125L57.7292 21.375L71.3125 41.75M91.6875 41.75H71.3125M91.6875 41.75L105.271 62.125M71.3125 41.75L57.7292 62.125L71.3125 82.5M91.6875 82.5L105.271 102.875M91.6875 82.5L105.271 62.125M91.6875 82.5H71.3125M23.7709 1L37.3542 21.375M71.3125 82.5L64.5209 92.6875M37.3542 62.125L30.5625 72.3125M23.7709 41.75H16.9792M105.271 62.125H125.646" stroke="white" stroke-linecap="round" stroke-linejoin="round"/>
<path d="M57.7291 106.271C59.6046 106.271 61.125 104.75 61.125 102.875C61.125 101 59.6046 99.4792 57.7291 99.4792C55.8537 99.4792 54.3333 101 54.3333 102.875C54.3333 104.75 55.8537 106.271 57.7291 106.271Z" fill="white"/>
<path d="M23.7708 85.8958C25.6463 85.8958 27.1667 84.3755 27.1667 82.5C27.1667 80.6245 25.6463 79.1042 23.7708 79.1042C21.8954 79.1042 20.375 80.6245 20.375 82.5C20.375 84.3755 21.8954 85.8958 23.7708 85.8958Z" fill="white"/>
<path d="M3.39583 45.1458C5.2713 45.1458 6.79167 43.6255 6.79167 41.75C6.79167 39.8745 5.2713 38.3542 3.39583 38.3542C1.52037 38.3542 0 39.8745 0 41.75C0 43.6255 1.52037 45.1458 3.39583 45.1458Z" fill="white"/>
</svg>
