<svg width="175" height="175" viewBox="0 0 175 175" fill="none" xmlns="http://www.w3.org/2000/svg">
<g clip-path="url(#clip0_161_5)">
<path d="M153.125 65.625C152.226 65.6597 151.33 65.7498 150.442 65.8948L139.665 44.3479C141.942 42.0075 143.665 39.1861 144.707 36.0915C145.749 32.9969 146.084 29.7079 145.687 26.4668C145.289 23.2256 144.17 20.1149 142.411 17.3638C140.652 14.6126 138.298 12.2911 135.523 10.5702C132.748 8.84925 129.622 7.77279 126.376 7.42008C123.13 7.06736 119.845 7.44738 116.766 8.53213C113.686 9.61688 110.888 11.3787 108.579 13.6879C106.271 15.9971 104.509 18.7948 103.425 21.875H71.575C70.4892 18.8002 68.7281 16.0079 66.4212 13.7031C64.1144 11.3984 61.3204 9.63995 58.2446 8.55696C55.1688 7.47397 51.8895 7.094 48.6475 7.44498C45.4056 7.79596 42.2835 8.86896 39.5108 10.5851C36.7381 12.3013 34.3851 14.617 32.625 17.362C30.8648 20.107 29.7422 23.2116 29.3396 26.4475C28.9369 29.6834 29.2646 32.9685 30.2984 36.0611C31.3322 39.1538 33.0459 41.9754 35.3135 44.3188L24.5219 65.8948C23.6459 65.7512 22.7619 65.6611 21.875 65.625C16.0734 65.625 10.5094 67.9297 6.40704 72.032C2.30468 76.1344 0 81.6984 0 87.5C0 93.3016 2.30468 98.8656 6.40704 102.968C10.5094 107.07 16.0734 109.375 21.875 109.375C22.7644 109.339 23.6508 109.249 24.5292 109.105L35.3135 130.689C33.0385 133.031 31.3179 135.854 30.2786 138.95C29.2392 142.046 28.9076 145.335 29.3082 148.576C29.7087 151.817 30.8312 154.927 32.5929 157.676C34.3546 160.426 36.7108 162.745 39.4877 164.463C42.2646 166.181 45.3917 167.255 48.6384 167.604C51.8852 167.954 55.169 167.57 58.248 166.482C61.327 165.394 64.1226 163.629 66.4291 161.318C68.7355 159.006 70.494 156.206 71.575 153.125H103.425C104.509 156.2 106.268 158.992 108.573 161.298C110.878 163.604 113.671 165.364 116.745 166.448C119.82 167.533 123.098 167.916 126.34 167.567C129.581 167.219 132.703 166.148 135.477 164.435C138.251 162.721 140.605 160.408 142.368 157.666C144.13 154.923 145.255 151.82 145.661 148.585C146.067 145.35 145.743 142.065 144.713 138.972C143.683 135.879 141.973 133.056 139.708 130.71L150.507 109.113C151.374 109.252 152.248 109.34 153.125 109.375C158.927 109.375 164.491 107.07 168.593 102.968C172.695 98.8656 175 93.3016 175 87.5C175 81.6984 172.695 76.1344 168.593 72.032C164.491 67.9297 158.927 65.625 153.125 65.625ZM21.875 94.7917C20.4328 94.7917 19.0231 94.364 17.824 93.5628C16.6249 92.7616 15.6903 91.6228 15.1384 90.2904C14.5865 88.958 14.4421 87.4919 14.7234 86.0775C15.0048 84.663 15.6993 83.3638 16.719 82.344C17.7388 81.3243 19.038 80.6298 20.4525 80.3484C21.8669 80.0671 23.333 80.2115 24.6654 80.7634C25.9978 81.3153 27.1366 82.2499 27.9378 83.449C28.739 84.6481 29.1667 86.0579 29.1667 87.5C29.1667 89.4339 28.3984 91.2885 27.031 92.656C25.6635 94.0234 23.8089 94.7917 21.875 94.7917ZM123.958 21.875C125.4 21.875 126.81 22.3027 128.009 23.1039C129.208 23.9051 130.143 25.0439 130.695 26.3763C131.247 27.7087 131.391 29.1748 131.11 30.5892C130.829 32.0037 130.134 33.3029 129.114 34.3227C128.095 35.3424 126.795 36.0369 125.381 36.3182C123.966 36.5996 122.5 36.4552 121.168 35.9033C119.836 35.3514 118.697 34.4168 117.896 33.2177C117.094 32.0186 116.667 30.6088 116.667 29.1667C116.667 27.2328 117.435 25.3781 118.802 24.0107C120.17 22.6432 122.024 21.875 123.958 21.875ZM51.0417 21.875C52.4838 21.875 53.8936 22.3027 55.0927 23.1039C56.2918 23.9051 57.2264 25.0439 57.7783 26.3763C58.3302 27.7087 58.4746 29.1748 58.1932 30.5892C57.9119 32.0037 57.2174 33.3029 56.1977 34.3227C55.1779 35.3424 53.8786 36.0369 52.4642 36.3182C51.0498 36.5996 49.5836 36.4552 48.2513 35.9033C46.9189 35.3514 45.7801 34.4168 44.9789 33.2177C44.1776 32.0186 43.75 30.6088 43.75 29.1667C43.75 27.2328 44.5182 25.3781 45.8857 24.0107C47.2531 22.6432 49.1078 21.875 51.0417 21.875ZM51.0417 153.125C49.5995 153.125 48.1897 152.697 46.9906 151.896C45.7915 151.095 44.8569 149.956 44.305 148.624C43.7532 147.291 43.6088 145.825 43.8901 144.411C44.1715 142.996 44.8659 141.697 45.8857 140.677C46.9054 139.658 48.2047 138.963 49.6191 138.682C51.0336 138.4 52.4997 138.545 53.8321 139.097C55.1644 139.649 56.3032 140.583 57.1045 141.782C57.9057 142.981 58.3333 144.391 58.3333 145.833C58.3333 147.767 57.5651 149.622 56.1977 150.989C54.8302 152.357 52.9755 153.125 51.0417 153.125ZM123.958 153.125C122.516 153.125 121.106 152.697 119.907 151.896C118.708 151.095 117.774 149.956 117.222 148.624C116.67 147.291 116.525 145.825 116.807 144.411C117.088 142.996 117.783 141.697 118.802 140.677C119.822 139.658 121.121 138.963 122.536 138.682C123.95 138.4 125.416 138.545 126.749 139.097C128.081 139.649 129.22 140.583 130.021 141.782C130.822 142.981 131.25 144.391 131.25 145.833C131.25 147.767 130.482 149.622 129.114 150.989C127.747 152.357 125.892 153.125 123.958 153.125ZM126.642 124.228C125.754 124.083 124.857 123.993 123.958 123.958C119.448 123.966 115.05 125.373 111.373 127.985C107.695 130.597 104.918 134.285 103.425 138.542H71.575C70.0815 134.285 67.3046 130.597 63.6271 127.985C59.9495 125.373 55.5524 123.966 51.0417 123.958C50.1523 123.994 49.2659 124.084 48.3875 124.228L37.6031 102.645C41.5422 98.586 43.7454 93.1524 43.7454 87.4964C43.7454 81.8403 41.5422 76.4067 37.6031 72.3479L48.3948 50.7719C49.2708 50.9154 50.1547 51.0055 51.0417 51.0417C55.5524 51.0336 59.9495 49.6267 63.6271 47.0148C67.3046 44.4029 70.0815 40.7146 71.575 36.4583H103.425C104.902 41.2398 108.061 45.3247 112.317 47.9573C116.573 50.59 121.638 51.5924 126.576 50.7792L137.368 72.3771C133.433 76.4429 131.238 81.8817 131.247 87.5395C131.257 93.1973 133.471 98.6287 137.419 102.681L126.642 124.228ZM153.125 94.7917C151.683 94.7917 150.273 94.364 149.074 93.5628C147.875 92.7616 146.94 91.6228 146.388 90.2904C145.836 88.958 145.692 87.4919 145.973 86.0775C146.255 84.663 146.949 83.3638 147.969 82.344C148.989 81.3243 150.288 80.6298 151.702 80.3484C153.117 80.0671 154.583 80.2115 155.915 80.7634C157.248 81.3153 158.387 82.2499 159.188 83.449C159.989 84.6481 160.417 86.0579 160.417 87.5C160.417 89.4339 159.648 91.2885 158.281 92.656C156.914 94.0234 155.059 94.7917 153.125 94.7917Z" fill="white" fill-opacity="0.51"/>
</g>
<defs>
<clipPath id="clip0_161_5">
<rect width="175" height="175" fill="white"/>
</clipPath>
</defs>
</svg>
