<svg width="167" height="167" viewBox="0 0 167 167" fill="none" xmlns="http://www.w3.org/2000/svg">
<g clip-path="url(#clip0_161_14)">
<path d="M146.125 62.625C145.267 62.6581 144.412 62.7441 143.564 62.8825L133.28 42.3206C135.453 40.0872 137.097 37.3948 138.092 34.4416C139.087 31.4885 139.406 28.3498 139.027 25.2569C138.648 22.1639 137.579 19.1954 135.901 16.57C134.222 13.9446 131.976 11.7292 129.328 10.087C126.68 8.44471 123.697 7.41747 120.599 7.08088C117.501 6.74429 114.367 7.10693 111.428 8.14209C108.488 9.17726 105.819 10.8586 103.616 13.0622C101.412 15.2658 99.7316 17.9357 98.697 20.875H68.303C67.2668 17.9408 65.5862 15.2761 63.3848 13.0767C61.1835 10.8774 58.5172 9.19927 55.582 8.16579C52.6468 7.13231 49.5174 6.76971 46.4236 7.10464C43.3299 7.43958 40.3506 8.46353 37.7046 10.1012C35.0586 11.739 32.8132 13.9488 31.1336 16.5683C29.4539 19.1879 28.3825 22.1505 27.9983 25.2385C27.6141 28.3265 27.9268 31.4613 28.9133 34.4126C29.8999 37.3639 31.5352 40.0566 33.6992 42.2928L23.4009 62.8825C22.5649 62.7455 21.7214 62.6595 20.875 62.625C15.3386 62.625 10.029 64.8243 6.11415 68.7392C2.19932 72.654 0 77.9636 0 83.5C0 89.0364 2.19932 94.346 6.11415 98.2609C10.029 102.176 15.3386 104.375 20.875 104.375C21.7237 104.341 22.5696 104.255 23.4078 104.118L33.6992 124.714C31.5281 126.95 29.8862 129.644 28.8944 132.598C27.9026 135.552 27.5861 138.691 27.9684 141.784C28.3506 144.877 29.4217 147.844 31.1029 150.468C32.7841 153.092 35.0326 155.305 37.6826 156.945C40.3325 158.585 43.3166 159.609 46.415 159.942C49.5133 160.276 52.647 159.91 55.5852 158.872C58.5234 157.833 61.1913 156.149 63.3923 153.943C65.5933 151.737 67.2714 149.066 68.303 146.125H98.697C99.7315 149.059 101.41 151.724 103.61 153.924C105.81 156.125 108.474 157.804 111.408 158.839C114.342 159.875 117.471 160.239 120.564 159.907C123.657 159.574 126.637 158.553 129.284 156.918C131.931 155.283 134.178 153.075 135.859 150.458C137.541 147.841 138.615 144.88 139.002 141.793C139.39 138.706 139.081 135.571 138.098 132.619C137.114 129.667 135.483 126.973 133.322 124.735L143.627 104.125C144.454 104.258 145.288 104.342 146.125 104.375C151.661 104.375 156.971 102.176 160.886 98.2609C164.801 94.346 167 89.0364 167 83.5C167 77.9636 164.801 72.654 160.886 68.7392C156.971 64.8243 151.661 62.625 146.125 62.625ZM120.852 118.549C120.005 118.411 119.15 118.325 118.292 118.292C113.987 118.299 109.791 119.642 106.282 122.134C102.772 124.627 100.122 128.147 98.697 132.208H68.303C66.8778 128.147 64.2278 124.627 60.7184 122.134C57.209 119.642 53.0128 118.299 48.7083 118.292C47.8596 118.326 47.0138 118.412 46.1755 118.549L35.8841 97.9525C39.6432 94.0792 41.7456 88.894 41.7456 83.4965C41.7456 78.0991 39.6432 72.9139 35.8841 69.0406L46.1825 48.4509C47.0184 48.5879 47.8619 48.6739 48.7083 48.7083C53.0128 48.7006 57.209 47.358 60.7184 44.8655C64.2278 42.373 66.8778 38.8534 68.303 34.7917H98.697C100.107 39.3546 103.121 43.2527 107.182 45.765C111.244 48.2773 116.078 49.2339 120.79 48.4578L131.088 69.0684C127.333 72.9484 125.238 78.1386 125.247 83.5377C125.257 88.9369 127.369 94.12 131.137 97.9873L120.852 118.549Z" fill="white" fill-opacity="0.49"/>
</g>
<defs>
<clipPath id="clip0_161_14">
<rect width="167" height="167" fill="white"/>
</clipPath>
</defs>
</svg>
