<svg width="431" height="65" viewBox="0 0 431 65" fill="none" xmlns="http://www.w3.org/2000/svg">
<g clip-path="url(#clip0_49_104)">
<path d="M360.984 18.188L362.017 29.3711H360.013L356.855 21.7131H346.35V59.8819L352.665 61.3406V63.5893H332.748V61.3406L339.063 59.8819V21.7131H328.558L325.401 29.3711H323.397L324.429 18.188H360.984ZM272.449 61.3404V63.5892H253.018V61.3404L259.334 59.9426L255.022 48.0909H238.141L233.709 60.0642L239.416 61.3406V63.5893H224.601V61.3406L230.005 59.8211L230.187 59.274L245.61 18.188L250.893 16.8508L267.045 59.821L272.449 61.3404ZM253.747 44.5657L246.642 25.1774L239.477 44.5657H253.747ZM401.255 62.1306C404.838 63.8324 409.878 64.9872 414.25 64.9872C424.026 64.9872 431.009 59.6387 431.009 52.0414C431.009 46.0243 428.216 42.4384 420.261 38.2447L414.918 35.4488C409.756 32.7138 407.631 30.4042 407.631 26.7576C407.631 22.3208 411.274 19.7681 416.375 19.7681C418.379 19.7681 420.504 20.1937 422.629 21.1053L426.334 29.0672H428.277L427.184 18.4917C424.634 17.5801 419.715 16.7899 416.557 16.7899C407.267 16.7899 401.498 21.4699 401.498 29.0672C401.498 34.1725 405.02 38.4879 412.246 42.2561L416.8 44.6264C421.962 47.3007 424.148 50.0964 424.148 53.9255C424.148 59.0915 419.654 62.0697 413.946 62.0697C411.214 62.0697 408.603 61.2188 405.384 59.2131L401.863 51.1296H399.98L401.255 62.1306ZM390.821 63.5892V61.3404L384.446 59.8817V21.8953L390.821 20.4366V18.1878H370.904V20.4366L377.28 21.8953V59.8817L370.904 61.3404V63.5892H390.821ZM322.25 61.4012V63.5892H310.348L296.868 42.7423H291.585V59.8817L297.718 61.3404V63.5892H279.077V61.3404L284.359 59.8817V21.8953L279.077 20.4366V18.1878C280.109 18.1878 288.124 17.9448 296.078 17.9448C309.012 17.9448 314.234 23.2324 314.234 30.1611C314.234 38.67 305.247 40.9797 303.669 41.4052L315.752 59.7603L322.25 61.4012ZM306.887 30.6474C306.887 22.7463 301.3 21.4092 291.585 21.4092V39.4603H294.5C302.09 39.4603 306.887 36.4822 306.887 30.6474ZM207.74 64.3793L223.588 21.9562L228.567 20.4367V18.188H214.966V20.4367L219.945 21.713L207.679 54.9587L195.474 21.8346L200.999 20.4367V18.188H182.6V20.4367L187.64 21.9562L203.671 64.3793H207.74ZM180.014 39.702C180.014 55.8082 168.841 64.9857 156.514 64.9857C144.066 64.9857 133.075 55.565 133.075 40.9176C133.075 26.1485 144.187 16.7886 156.453 16.7886C171.512 16.7886 180.014 28.458 180.014 39.702ZM172.12 42.0737C172.12 30.2829 165.137 19.5251 155.543 19.5251C145.341 19.5251 140.848 28.7633 140.848 39.2779C140.848 49.7925 146.617 62.3128 157.547 62.3128C167.808 62.3129 172.12 52.4667 172.12 42.0737ZM125.919 20.4367V18.188H111.892V20.4367L117.418 21.713V50.765L92.3999 18.188H80.5591V20.4367C81.0449 20.4974 81.652 20.619 81.9557 20.6797C83.2307 20.9837 85.2346 21.7737 86.2669 22.6246V59.8815L81.2877 61.3403V63.589H95.2539V61.3403L89.7281 60.0639V26.4538L119.118 64.3186H121.182C121.061 63.4677 120.94 58.2408 120.94 55.8704V21.8954L125.919 20.4367Z" fill="black"/>
<path d="M39.719 29.0674L39.5551 29.4786C42.2521 30.6627 48.285 35.3629 48.285 44.8152C48.285 53.7152 40.7829 62.6968 28.9998 62.6968C14.3308 62.6968 9.27559 54.1191 9.27559 46.2334C9.27559 36.1322 16.333 29.398 16.333 20.1977C16.333 13.7914 11.4913 7.46751 5.00938 6.31787L4.76367 6.72909C7.47016 9.60288 8.37318 12.3962 8.37318 15.3532C8.37318 25.2904 0.00390625 32.3535 0.00390625 43.7692C0.00390625 54.2832 7.34928 64.9873 28.5911 64.9873C47.5263 64.9873 57.5129 55.7095 57.5129 45.823C57.5127 37.3643 51.4391 30.1959 39.719 29.0674Z" fill="black"/>
<path d="M28.838 50.8329L34.1717 -0.00634766H23.0122L28.346 50.8329H28.838Z" fill="black"/>
</g>
<defs>
<clipPath id="clip0_49_104">
<rect width="431" height="65" fill="white"/>
</clipPath>
</defs>
</svg>
