<svg width="230" height="95" viewBox="0 0 230 95" fill="none" xmlns="http://www.w3.org/2000/svg">
<g clip-path="url(#clip0_49_91)">
<path d="M191.786 64.6994C187.54 64.7606 185.28 62.0546 185.28 57.2541C185.28 52.4537 185.28 56.6273 185.31 56.3216H201.989C202.325 55.0527 202.539 53.6767 202.539 52.4078C202.539 46.5525 198.949 42.0884 191.618 42.0884C184.287 42.0884 177.46 49.4878 177.46 57.2541C177.46 65.0205 182.317 69.2247 190.412 69.2247C198.507 69.2247 197.529 68.0169 200.003 66.1365L198.461 62.2686C196.536 63.7516 194.169 64.6383 191.786 64.6994ZM191.725 46.262C194.199 46.262 195.467 47.8673 195.467 51.3988C195.467 54.9304 195.452 52.0868 195.406 52.4537H185.891C186.929 48.7387 189.129 46.2773 191.71 46.2773L191.725 46.262Z" fill="black"/>
<path d="M125.76 40.4217C125.76 34.3523 121.025 29.9341 113.847 29.9341H99.9633L89.4858 68.5517H98.2527L102.117 54.3185H109.723C118.429 54.3185 125.76 48.6925 125.76 40.4217ZM106.348 49.7933H103.339L107.493 34.4593H110.655C114.641 34.4593 116.886 37.1653 116.886 40.7427C116.886 46.4758 112.396 49.7933 106.363 49.7933H106.348Z" fill="black"/>
<path d="M137.169 42.7915L138.146 39.1988C138.635 37.3184 139.475 34.1232 140.621 30.4235C141.827 26.6168 144.042 24.2471 147.02 24.2471C149.999 24.2471 149.342 24.9045 149.342 26.0052C149.281 27.213 148.288 27.9315 148.288 29.8731C148.288 31.8147 150.212 33.8939 152.702 33.8939C155.191 33.8939 158.261 31.4172 158.261 28.3749C158.261 23.6815 154.245 20.5933 148.12 20.5933C139.139 20.5933 133.244 26.3263 129.548 39.7339L114.549 94.297H123.041L135.993 47.011H144.821L139.017 68.5213H147.509L154.458 42.761H137.154L137.169 42.7915Z" fill="black"/>
<path d="M180.163 42.7915H157.666L156.566 47.0416H167.456L150.563 68.5519H174.374L175.474 64.3018H163.225L180.163 42.7915Z" fill="black"/>
<path d="M224.7 42.3483C221.661 42.3483 218.423 44.3205 215.887 48.4024L217.369 42.7916H208.877L201.928 68.552H210.42L213.566 56.9637C214.834 52.2244 217.919 47.5768 219.965 47.5768C222.012 47.5768 221.34 51.7199 225.143 51.7199C228.946 51.7199 229.557 49.1821 229.557 46.8583C229.557 44.5345 227.404 42.333 224.7 42.333V42.3483Z" fill="black"/>
<path d="M10.3093 44.1215C16.8004 41.7213 27.8582 41.1098 42.5206 42.7915L46.8429 26.4332C30.1339 24.14 12.585 25.837 8.49174 31.7229C6.6895 34.3677 6.20075 39.902 10.294 44.1215H10.3093ZM74.7318 41.4767C68.2407 43.8769 57.1829 44.4884 42.5206 42.8067L38.1982 59.165C54.9072 61.4582 72.4561 59.7612 76.5494 53.8753C78.3516 51.2305 78.8404 45.6962 74.7471 41.4767H74.7318ZM80.5051 47.2403L83.1474 37.3795C84.1096 33.8938 84.5831 32.0898 84.5831 30.6374C84.5831 18.0095 51.5165 2.59915 20.0231 0.672852L15.5785 17.0311C48.0342 19.3243 81.223 35.0863 80.3677 47.2403H80.4899H80.5051ZM4.53597 38.3426L1.89369 48.2034C0.931479 51.6891 0.458008 53.4931 0.458008 54.9455C0.458008 67.5734 33.5246 82.9838 65.0181 84.9101L69.4626 68.5518C36.9916 66.2586 3.81812 50.4966 4.65815 38.3426H4.53597Z" fill="black"/>
</g>
<defs>
<clipPath id="clip0_49_91">
<rect width="230" height="95" fill="white"/>
</clipPath>
</defs>
</svg>
