<svg width="207" height="207" viewBox="0 0 207 207" fill="none" xmlns="http://www.w3.org/2000/svg">
<g clip-path="url(#clip0_39_1453)">
<mask id="mask0_39_1453" style="mask-type:luminance" maskUnits="userSpaceOnUse" x="71" y="76" width="65" height="56">
<path d="M136 76H71V132H136V76Z" fill="white"/>
</mask>
<g mask="url(#mask0_39_1453)">
<path d="M132.988 125.889H127.893L127.908 76.1553H111.146V81.2455H121.862V125.889H116.767C115.101 125.889 113.748 127.257 113.748 128.944C113.748 130.631 115.101 132 116.767 132H133.003C134.669 132 136.022 130.631 136.022 128.944C136.022 127.257 134.669 125.889 133.003 125.889H132.988Z" fill="black"/>
<path d="M116.439 106.194C116.439 105.668 116.424 105.136 116.424 104.618V91.9588C116.424 91.1893 116.066 90.3015 115.525 89.7614C114.998 89.2287 114.07 88.8292 113.471 88.8514C111.928 88.9254 110.284 90.0425 110.284 91.9662V107.459C110.284 108.465 110.284 109.493 110.225 110.551H110.291C110.269 110.714 110.247 110.87 110.225 111.018C110.181 111.306 110.145 111.602 110.108 111.891L110.094 111.987C110.094 111.987 110.094 112.031 110.086 112.061H110.035C109.845 112.971 109.604 113.866 109.311 114.739L109.363 114.761C109.341 114.813 109.319 114.872 109.297 114.924L108.785 116.152L108.741 116.137C108.317 116.988 107.835 117.824 107.294 118.638L107.338 118.668C107.294 118.727 107.243 118.786 107.199 118.853C107.104 118.979 107.009 119.104 106.914 119.23C106.76 119.437 106.599 119.644 106.446 119.844L106.402 119.814C105.788 120.517 105.13 121.176 104.443 121.797L104.472 121.834C104.275 121.997 104.07 122.153 103.866 122.308C103.741 122.404 103.617 122.5 103.493 122.596C103.434 122.641 103.376 122.693 103.317 122.737L103.281 122.693C102.491 123.225 101.665 123.714 100.81 124.15L100.832 124.202L99.4795 124.779L99.4576 124.727C98.6023 125.023 97.7251 125.267 96.8406 125.452V125.504C96.3728 125.578 95.8904 125.645 95.4152 125.704L95.2909 125.719V125.659C94.2602 125.726 93.2368 125.726 92.2135 125.659V125.719C92.0526 125.696 91.9064 125.674 91.7529 125.652C91.4751 125.615 91.1901 125.578 90.9123 125.534L90.7295 125.511V125.46C89.8304 125.267 88.9459 125.023 88.076 124.727L88.0541 124.779C87.9956 124.757 87.9371 124.727 87.886 124.705L86.6871 124.187L86.7018 124.143C85.8611 123.714 85.0351 123.225 84.2383 122.678L84.2091 122.722C84.1506 122.678 84.0921 122.626 84.0336 122.582C83.9094 122.485 83.7851 122.389 83.6608 122.293C83.4561 122.138 83.2515 121.975 83.0541 121.819L83.0833 121.783C82.3889 121.161 81.7383 120.495 81.1243 119.8L81.0877 119.829C80.9269 119.63 80.7734 119.422 80.6199 119.215C80.5248 119.089 80.4298 118.964 80.3275 118.838C80.2836 118.779 80.2325 118.72 80.1886 118.66L80.2325 118.623C79.7061 117.824 79.2237 116.988 78.7924 116.123L78.7412 116.145L78.1711 114.776L78.2222 114.754C77.9298 113.888 77.6886 113 77.5058 112.105H77.4547C77.3816 111.654 77.3231 111.18 77.2646 110.722L77.2427 110.537H77.3085C77.2427 109.486 77.2427 108.472 77.2427 107.481V81.0902H85.3129V76H71.0585V80.2838C71.0365 80.4392 71.0073 80.5945 71.0073 80.7573V104.462C71 105.95 71 107.444 71 108.931C71.0219 114.613 73.0468 119.948 76.8406 124.365C78.5731 126.377 80.7222 128.079 83.0687 129.285C85.8757 130.742 88.8363 131.593 92.133 131.889C94.7646 132.133 97.6374 131.815 100.233 131.001C103.091 130.106 105.671 128.678 108.347 126.525C110.306 124.949 112.06 122.826 113.42 120.406C114.121 119.156 114.743 117.728 115.276 116.167C115.817 114.598 116.058 112.934 116.263 111.373C116.475 109.73 116.453 108.014 116.431 106.194H116.439Z" fill="black"/>
</g>
</g>
<defs>
<clipPath id="clip0_39_1453">
<rect width="65" height="56" fill="white" transform="translate(71 76)"/>
</clipPath>
</defs>
</svg>
