<svg width="174" height="63" viewBox="0 0 174 63" fill="none" xmlns="http://www.w3.org/2000/svg">
<path fill-rule="evenodd" clip-rule="evenodd" d="M26.8236 8.0115L24.0621 5.25L22.3519 6.96019L24.9165 9.52481L9.52481 24.9165L6.96019 22.3519L5.25 24.0621L8.0115 26.8236C10.2634 29.0754 13.0101 30.7701 16.0328 31.7728C19.0555 32.7754 22.2705 33.0582 25.4218 32.5986C25.6187 31.7271 25.8681 30.8643 26.1699 30.0103C23.5252 30.5655 20.8149 30.5117 18.2346 29.8896L29.8896 18.2346C30.7678 21.8555 30.4995 25.6599 29.1217 29.1217L29.1139 29.1414C29.0552 29.2849 28.9957 29.428 28.9354 29.5706C28.4274 31.0012 28.5718 30.6246 28.5718 30.6246L28.4747 30.8976L21 38.3709L32.844 50.2149C35.1478 52.518 38.2719 53.8118 41.5295 53.8118C44.787 53.8118 47.9112 52.518 50.2149 50.2149C52.518 47.9112 53.8118 44.787 53.8118 41.5295C53.8118 38.2719 52.518 35.1478 50.2149 32.844L38.3709 21L32.2849 27.0861C33.0683 23.7045 32.9781 20.1791 32.0226 16.842C31.0672 13.505 29.278 10.466 26.8236 8.0115ZM15.6489 29.0535L29.0548 15.6489C28.4212 14.0975 27.5739 12.6423 26.5374 11.3256L11.3256 26.5374C12.6424 27.5735 14.0976 28.4203 15.6489 29.0535ZM24.7117 38.3709L38.3709 24.7117L48.3591 34.6999C50.152 36.515 51.1539 38.9658 51.146 41.5171C51.1382 44.0685 50.1212 46.513 48.3171 48.3171C46.513 50.1212 44.0685 51.1382 41.5171 51.146C38.9658 51.1539 36.515 50.152 34.6999 48.3591L24.7117 38.3709Z" fill="url(#paint0_linear_16_153)"/>
<path fill-rule="evenodd" clip-rule="evenodd" d="M29.8121 37.1437L36.729 44.1905C37.9247 45.4085 39.2845 45.9913 40.5707 46.0241C41.8465 46.0569 43.176 45.5529 44.3441 44.3612L46.2184 46.2C44.5856 47.8642 42.5696 48.7016 40.5038 48.6478C38.4445 48.5953 36.4613 47.6634 34.8561 46.0294L27.9392 38.9812L29.8121 37.1437Z" fill="url(#paint1_linear_16_153)"/>
<path d="M60.7216 49V31.5455H67.4034C68.6648 31.5455 69.7131 31.7443 70.5483 32.142C71.3892 32.5341 72.017 33.071 72.4318 33.7528C72.8523 34.4347 73.0625 35.2074 73.0625 36.071C73.0625 36.7812 72.9261 37.3892 72.6534 37.8949C72.3807 38.3949 72.0142 38.8011 71.554 39.1136C71.0938 39.4261 70.5795 39.6506 70.0114 39.7869V39.9574C70.6307 39.9915 71.2244 40.1818 71.7926 40.5284C72.3665 40.8693 72.8352 41.3523 73.1989 41.9773C73.5625 42.6023 73.7443 43.358 73.7443 44.2443C73.7443 45.1477 73.5256 45.9602 73.0881 46.6818C72.6506 47.3977 71.9915 47.9631 71.1108 48.3778C70.2301 48.7926 69.1222 49 67.7869 49H60.7216ZM63.8835 46.358H67.2841C68.4318 46.358 69.2585 46.1392 69.7642 45.7017C70.2756 45.2585 70.5312 44.6903 70.5312 43.9972C70.5312 43.4801 70.4034 43.0142 70.1477 42.5994C69.892 42.179 69.5284 41.8494 69.0568 41.6108C68.5852 41.3665 68.0227 41.2443 67.3693 41.2443H63.8835V46.358ZM63.8835 38.9688H67.0114C67.5568 38.9688 68.0483 38.8693 68.4858 38.6705C68.9233 38.4659 69.267 38.179 69.517 37.8097C69.7727 37.4347 69.9006 36.9915 69.9006 36.4801C69.9006 35.804 69.6619 35.2472 69.1847 34.8097C68.7131 34.3722 68.0114 34.1534 67.0795 34.1534H63.8835V38.9688ZM76.3587 49V35.9091H79.4439V49H76.3587ZM77.9098 34.0511C77.4212 34.0511 77.0007 33.8892 76.6484 33.5653C76.2962 33.2358 76.12 32.8409 76.12 32.3807C76.12 31.9148 76.2962 31.5199 76.6484 31.196C77.0007 30.8665 77.4212 30.7017 77.9098 30.7017C78.4041 30.7017 78.8246 30.8665 79.1712 31.196C79.5234 31.5199 79.6996 31.9148 79.6996 32.3807C79.6996 32.8409 79.5234 33.2358 79.1712 33.5653C78.8246 33.8892 78.4041 34.0511 77.9098 34.0511ZM88.3267 49.2557C87.0483 49.2557 85.9403 48.9744 85.0028 48.4119C84.0653 47.8494 83.3381 47.0625 82.821 46.0511C82.3097 45.0398 82.054 43.858 82.054 42.5057C82.054 41.1534 82.3097 39.9687 82.821 38.9517C83.3381 37.9347 84.0653 37.1449 85.0028 36.5824C85.9403 36.0199 87.0483 35.7386 88.3267 35.7386C89.6051 35.7386 90.7131 36.0199 91.6506 36.5824C92.5881 37.1449 93.3125 37.9347 93.8239 38.9517C94.3409 39.9687 94.5994 41.1534 94.5994 42.5057C94.5994 43.858 94.3409 45.0398 93.8239 46.0511C93.3125 47.0625 92.5881 47.8494 91.6506 48.4119C90.7131 48.9744 89.6051 49.2557 88.3267 49.2557ZM88.3438 46.7841C89.0369 46.7841 89.6165 46.5937 90.0824 46.2131C90.5483 45.8267 90.8949 45.3097 91.1222 44.6619C91.3551 44.0142 91.4716 43.2926 91.4716 42.4972C91.4716 41.696 91.3551 40.9716 91.1222 40.3239C90.8949 39.6705 90.5483 39.1506 90.0824 38.7642C89.6165 38.3778 89.0369 38.1847 88.3438 38.1847C87.6335 38.1847 87.0426 38.3778 86.571 38.7642C86.1051 39.1506 85.7557 39.6705 85.5227 40.3239C85.2955 40.9716 85.1818 41.696 85.1818 42.4972C85.1818 43.2926 85.2955 44.0142 85.5227 44.6619C85.7557 45.3097 86.1051 45.8267 86.571 46.2131C87.0426 46.5937 87.6335 46.7841 88.3438 46.7841Z" fill="#73B591"/>
<path d="M111.698 31.5455V49H108.886L100.661 37.1108H100.516V49H97.3544V31.5455H100.184L108.4 43.4432H108.553V31.5455H111.698ZM120.717 49.2557C119.439 49.2557 118.331 48.9744 117.393 48.4119C116.456 47.8494 115.729 47.0625 115.212 46.0511C114.7 45.0398 114.445 43.858 114.445 42.5057C114.445 41.1534 114.7 39.9687 115.212 38.9517C115.729 37.9347 116.456 37.1449 117.393 36.5824C118.331 36.0199 119.439 35.7386 120.717 35.7386C121.996 35.7386 123.104 36.0199 124.041 36.5824C124.979 37.1449 125.703 37.9347 126.214 38.9517C126.732 39.9687 126.99 41.1534 126.99 42.5057C126.99 43.858 126.732 45.0398 126.214 46.0511C125.703 47.0625 124.979 47.8494 124.041 48.4119C123.104 48.9744 121.996 49.2557 120.717 49.2557ZM120.734 46.7841C121.428 46.7841 122.007 46.5937 122.473 46.2131C122.939 45.8267 123.286 45.3097 123.513 44.6619C123.746 44.0142 123.862 43.2926 123.862 42.4972C123.862 41.696 123.746 40.9716 123.513 40.3239C123.286 39.6705 122.939 39.1506 122.473 38.7642C122.007 38.3778 121.428 38.1847 120.734 38.1847C120.024 38.1847 119.433 38.3778 118.962 38.7642C118.496 39.1506 118.146 39.6705 117.913 40.3239C117.686 40.9716 117.572 41.696 117.572 42.4972C117.572 43.2926 117.686 44.0142 117.913 44.6619C118.146 45.3097 118.496 45.8267 118.962 46.2131C119.433 46.5937 120.024 46.7841 120.734 46.7841ZM140.857 35.9091L136.195 49H132.786L128.124 35.9091H131.413L134.422 45.6335H134.558L137.575 35.9091H140.857ZM146.384 49.2642C145.554 49.2642 144.807 49.1165 144.142 48.821C143.483 48.5199 142.96 48.0767 142.574 47.4915C142.193 46.9062 142.003 46.1847 142.003 45.3267C142.003 44.5881 142.139 43.9773 142.412 43.4943C142.685 43.0114 143.057 42.625 143.528 42.3352C144 42.0455 144.531 41.8267 145.122 41.679C145.719 41.5256 146.335 41.4148 146.972 41.3466C147.739 41.267 148.361 41.196 148.838 41.1335C149.315 41.0653 149.662 40.9631 149.878 40.8267C150.099 40.6847 150.21 40.4659 150.21 40.1705V40.1193C150.21 39.4773 150.02 38.9801 149.639 38.6278C149.259 38.2756 148.71 38.0994 147.994 38.0994C147.239 38.0994 146.639 38.2642 146.196 38.5938C145.759 38.9233 145.463 39.3125 145.31 39.7614L142.429 39.3523C142.656 38.5568 143.031 37.892 143.554 37.358C144.077 36.8182 144.716 36.4148 145.472 36.1477C146.227 35.875 147.063 35.7386 147.977 35.7386C148.608 35.7386 149.236 35.8125 149.861 35.9602C150.486 36.108 151.057 36.3523 151.574 36.6932C152.091 37.0284 152.506 37.4858 152.818 38.0653C153.136 38.6449 153.295 39.3693 153.295 40.2386V49H150.33V47.2017H150.227C150.04 47.5653 149.776 47.9062 149.435 48.2244C149.099 48.5369 148.676 48.7898 148.165 48.983C147.659 49.1705 147.065 49.2642 146.384 49.2642ZM147.185 46.9972C147.804 46.9972 148.341 46.875 148.795 46.6307C149.25 46.3807 149.599 46.0511 149.844 45.642C150.094 45.233 150.219 44.7869 150.219 44.304V42.7614C150.122 42.8409 149.957 42.9148 149.724 42.983C149.497 43.0511 149.241 43.1108 148.957 43.1619C148.673 43.2131 148.392 43.2585 148.114 43.2983C147.835 43.3381 147.594 43.3722 147.389 43.4006C146.929 43.4631 146.517 43.5653 146.153 43.7074C145.79 43.8494 145.503 44.0483 145.293 44.304C145.082 44.554 144.977 44.8778 144.977 45.2756C144.977 45.8438 145.185 46.2727 145.599 46.5625C146.014 46.8523 146.543 46.9972 147.185 46.9972Z" fill="#B1D75D"/>
<defs>
<linearGradient id="paint0_linear_16_153" x1="29.5309" y1="5.25" x2="29.5309" y2="53.8118" gradientUnits="userSpaceOnUse">
<stop stop-color="#72B392"/>
<stop offset="1" stop-color="#B5D85F"/>
</linearGradient>
<linearGradient id="paint1_linear_16_153" x1="37.0788" y1="37.1437" x2="37.0788" y2="48.6502" gradientUnits="userSpaceOnUse">
<stop stop-color="#72B392"/>
<stop offset="1" stop-color="#B5D85F"/>
</linearGradient>
</defs>
</svg>
